<?xml version="1.0" encoding="UTF-8"?><svg id="Layer_1" xmlns="http://www.w3.org/2000/svg" viewBox="0 0 3833.65 1481.41"><defs><style>.cls-1{fill:#fff;}</style></defs><path class="cls-1" d="M1035.93,1278.85h51.98c34.97,0,54.13,21.31,54.13,47.49s-19.16,47.49-54.33,47.49h-36.15v31.65h-15.63v-126.63ZM1089.27,1360.14c22.28,0,36.54-15.24,36.54-33.8s-14.26-33.8-36.34-33.8h-37.91v67.61h37.72Z"/><path class="cls-1" d="M1163.69,1357.99c0-27.94,18.56-49.63,44.94-49.63,15.24,0,28.73,6.25,35.76,18.56v-16.61h14.85v95.17h-14.85v-16.61c-7.03,12.51-20.51,18.56-35.76,18.56-26.38,0-44.94-21.88-44.94-49.44ZM1244.38,1357.99c0-19.93-14.26-35.17-32.44-35.17s-33.02,14.85-33.02,35.17,14.06,34.98,33.02,34.98,32.44-15.04,32.44-34.98Z"/><path class="cls-1" d="M1289.1,1276.9h14.85v128.58h-14.85v-128.58Z"/><path class="cls-1" d="M1333.84,1310.32h14.85v16.41c5.27-10.36,17.19-18.36,30.48-18.36,15.24,0,25.98,6.64,30.48,20.13,6.84-13.87,21.69-20.13,32.83-20.13,22.86,0,34.97,13.29,34.97,39.47v57.65h-15.04v-55.69c0-16.22-5.67-26.97-23.06-26.97-16.02,0-26.18,12.89-26.18,27.16v55.5h-15.05v-55.69c0-16.22-5.66-26.97-22.86-26.97s-26.57,14.07-26.57,27.95v54.71h-14.85v-95.17Z"/><path class="cls-1" d="M1501.65,1357.99c0-27.55,20.71-49.63,47.88-49.63,25.4,0,45.53,21.88,45.53,49.05,0,2.74-.39,5.67-.39,5.87h-77.58c2.35,18.95,17,30.87,34.59,30.87,10.74,0,21.49-3.71,29.31-10.16l6.45,10.94c-10.16,8.02-22.86,12.51-35.95,12.51-26.97,0-49.83-19.34-49.83-49.44ZM1580.39,1351.94c-1.56-17.59-15.04-30.29-31.65-30.29s-29.51,12.51-31.66,30.29h63.31Z"/><path class="cls-1" d="M1626.09,1376.95v-54.33h-14.27v-12.31h14.27v-20.51l14.85-2.74v23.26h32.44v12.31h-32.44v54.72c0,13.09,5.67,16.8,13.29,16.8,8.8,0,15.64-5.27,15.64-5.27l4.89,11.53c-3.72,2.55-11.53,7.04-21.89,7.04-16.81,0-26.77-8.21-26.77-30.48Z"/><path class="cls-1" d="M1702.28,1376.95v-54.33h-14.27v-12.31h14.27v-20.51l14.85-2.74v23.26h32.44v12.31h-32.44v54.72c0,13.09,5.67,16.8,13.29,16.8,8.8,0,15.64-5.27,15.64-5.27l4.89,11.53c-3.72,2.55-11.53,7.04-21.89,7.04-16.81,0-26.77-8.21-26.77-30.48Z"/><path class="cls-1" d="M1768.3,1357.99c0-27.75,22.08-49.63,50.03-49.63s50.03,21.88,50.03,49.63-22.09,49.44-50.03,49.44-50.03-21.88-50.03-49.44ZM1853.11,1357.99c0-20.13-15.05-35.17-34.78-35.17s-34.78,15.04-34.78,35.17,15.04,34.98,34.78,34.98,34.78-15.04,34.78-34.98Z"/><path class="cls-1" d="M1991.22,1278.47h14.07l59.4,127.02h-15.83l-11.72-24.63h-77.58l-11.72,24.63h-16.02l59.41-127.02ZM2031.47,1368.16l-23.26-49.24c-4.29-9.19-9.18-21.31-9.96-22.87-.78,1.57-5.47,13.49-9.97,22.87l-23.25,49.24h66.44Z"/><path class="cls-1" d="M2085.76,1420.14l6.25-9.57c7.62,7.62,18.76,11.92,29.9,11.92,16.22,0,34.59-9.97,34.59-38.11v-3.12c-4.1,10.74-17.19,19.54-35.56,19.54-26.19,0-44.56-20.32-44.56-46.12s18.36-46.31,44.56-46.31c16.41,0,31.26,7.42,36.14,19.34v-17.39h14.27v73.67c0,38.3-27.36,50.22-48.27,50.22-15.24,0-28.33-5.08-37.32-14.07ZM2156.49,1353.5c0-17.98-14.66-31.85-32.63-31.85s-32.24,14.26-32.24,33.02,14.06,32.83,32.24,32.83,32.63-14.07,32.63-34Z"/><path class="cls-1" d="M2201.21,1310.32h14.85v20.13c5.47-12.51,17.78-22.08,36.74-22.08v16.21c-22.28,0-36.74,12.51-36.74,35.76v45.14h-14.85v-95.17Z"/><path class="cls-1" d="M2272.51,1283.54c0-5.47,4.3-9.96,9.77-9.96s9.97,4.49,9.97,9.96-4.5,9.77-9.97,9.77-9.77-4.29-9.77-9.77ZM2274.86,1310.32h14.85v95.17h-14.85v-95.17Z"/><path class="cls-1" d="M2321.94,1278.85h58.03c21.11,0,36.15,9.97,36.15,30.29,0,10.55-6.25,19.93-14.26,23.45,14.26,2.93,26.77,16.22,26.77,34,0,24.82-18.96,38.89-47.88,38.89h-58.82v-126.63ZM2381.54,1327.91c11.34,0,18.17-7.43,18.17-17.59,0-11.14-7.43-17.78-20.72-17.78h-41.42v35.37h43.97ZM2379.77,1391.81c19.74,0,32.44-8.8,32.44-25.01,0-15.24-11.53-25.41-28.53-25.41h-46.12v50.42h42.21Z"/><path class="cls-1" d="M2453.8,1369.72v-59.4h14.85v57.45c0,17.79,8.59,25.21,24.03,25.21,17.2,0,27.16-14.07,27.16-28.73v-53.93h14.85v95.17h-14.27v-16.81c-5.86,12.31-19.54,18.76-32.05,18.76-23.45,0-34.59-12.31-34.59-37.72Z"/><path class="cls-1" d="M2559.48,1392.98l6.06-12.12c7.03,6.85,17.19,12.51,31.07,12.51,13.09,0,23.84-6.06,23.84-14.65,0-9.97-11.53-12.7-23.06-15.64-17.59-4.5-33.61-9.38-33.61-27.55,0-17.2,17.98-27.16,34-27.16,13.09,0,22.67,3.52,32.44,10.16l-5.86,12.12c-8.02-5.47-16.41-8.21-26.38-8.21s-18.96,5.47-18.96,12.89c0,9.38,10.55,11.53,21.69,13.87,17.19,3.91,34.98,10.36,34.98,29.12,0,20.13-20.52,29.12-39.08,29.12s-31.66-8.79-37.13-14.46Z"/><path class="cls-1" d="M2658.73,1283.54c0-5.47,4.3-9.96,9.77-9.96s9.97,4.49,9.97,9.96-4.5,9.77-9.97,9.77-9.77-4.29-9.77-9.77ZM2661.08,1310.32h14.85v95.17h-14.85v-95.17Z"/><path class="cls-1" d="M2705.81,1310.32h14.85v16.22c6.64-11.53,18.95-18.17,33.02-18.17,23.84,0,34.4,14.46,34.4,39.47v57.65h-14.85v-55.69c0-17.59-6.45-26.97-23.65-26.97s-28.92,13.29-28.92,29.12v53.54h-14.85v-95.17Z"/><path class="cls-1" d="M2812.47,1357.99c0-27.55,20.71-49.63,47.88-49.63,25.4,0,45.53,21.88,45.53,49.05,0,2.74-.39,5.67-.39,5.87h-77.58c2.35,18.95,17,30.87,34.59,30.87,10.74,0,21.49-3.71,29.31-10.16l6.45,10.94c-10.16,8.02-22.86,12.51-35.95,12.51-26.97,0-49.83-19.34-49.83-49.44ZM2891.22,1351.94c-1.56-17.59-15.04-30.29-31.65-30.29s-29.51,12.51-31.66,30.29h63.31Z"/><path class="cls-1" d="M2926.75,1392.98l6.06-12.12c7.03,6.85,17.19,12.51,31.07,12.51,13.09,0,23.84-6.06,23.84-14.65,0-9.97-11.53-12.7-23.06-15.64-17.59-4.5-33.61-9.38-33.61-27.55,0-17.2,17.98-27.16,34-27.16,13.09,0,22.67,3.52,32.44,10.16l-5.86,12.12c-8.02-5.47-16.41-8.21-26.38-8.21s-18.96,5.47-18.96,12.89c0,9.38,10.55,11.53,21.69,13.87,17.19,3.91,34.98,10.36,34.98,29.12,0,20.13-20.52,29.12-39.08,29.12s-31.66-8.79-37.13-14.46Z"/><path class="cls-1" d="M3023.25,1392.98l6.06-12.12c7.03,6.85,17.19,12.51,31.07,12.51,13.09,0,23.84-6.06,23.84-14.65,0-9.97-11.53-12.7-23.06-15.64-17.59-4.5-33.61-9.38-33.61-27.55,0-17.2,17.98-27.16,34-27.16,13.09,0,22.67,3.52,32.44,10.16l-5.87,12.12c-8.02-5.47-16.41-8.21-26.38-8.21s-18.96,5.47-18.96,12.89c0,9.38,10.55,11.53,21.69,13.87,17.19,3.91,34.98,10.36,34.98,29.12,0,20.13-20.52,29.12-39.08,29.12s-31.66-8.79-37.13-14.46Z"/><path class="cls-1" d="M3169.38,1341.97c0-36.15,28.33-65.07,66.05-65.07,16.81,0,32.25,6.06,43.57,16.22l-9.18,10.55c-9.58-8.21-20.91-12.51-33.42-12.51-29.31,0-50.81,22.86-50.81,50.8s21.49,51.2,49.83,51.2c14.66,0,27.95-5.87,37.13-15.64l9.77,10.75c-11.72,11.72-28.14,19.15-46.9,19.15-37.72,0-66.05-28.92-66.05-65.46Z"/><path class="cls-1" d="M3299.29,1357.99c0-27.75,22.08-49.63,50.03-49.63s50.03,21.88,50.03,49.63-22.09,49.44-50.03,49.44-50.03-21.88-50.03-49.44ZM3384.1,1357.99c0-20.13-15.05-35.17-34.78-35.17s-34.78,15.04-34.78,35.17,15.04,34.98,34.78,34.98,34.78-15.04,34.78-34.98Z"/><path class="cls-1" d="M3423.73,1369.72v-59.4h14.85v57.45c0,17.79,8.59,25.21,24.03,25.21,17.2,0,27.16-14.07,27.16-28.73v-53.93h14.85v95.17h-14.27v-16.81c-5.86,12.31-19.54,18.76-32.05,18.76-23.45,0-34.59-12.31-34.59-37.72Z"/><path class="cls-1" d="M3534.5,1310.32h14.85v16.22c6.64-11.53,18.95-18.17,33.02-18.17,23.84,0,34.4,14.46,34.4,39.47v57.65h-14.85v-55.69c0-17.59-6.45-26.97-23.65-26.97s-28.92,13.29-28.92,29.12v53.54h-14.85v-95.17Z"/><path class="cls-1" d="M3641.16,1357.99c0-27.75,22.08-49.63,50.03-49.63,13.09,0,25.01,4.69,34,12.7l-9.38,10.55c-5.86-5.47-14.46-8.79-24.43-8.79-19.93,0-34.97,14.85-34.97,35.17s14.46,34.98,35.37,34.98c10.74,0,20.51-4.1,27.16-10.75l8.59,11.14c-9.18,8.8-22.08,14.07-36.34,14.07-27.95,0-50.03-21.69-50.03-49.44Z"/><path class="cls-1" d="M3747.81,1283.54c0-5.47,4.3-9.96,9.77-9.96s9.97,4.49,9.97,9.96-4.5,9.77-9.97,9.77-9.77-4.29-9.77-9.77ZM3750.16,1310.32h14.85v95.17h-14.85v-95.17Z"/><path class="cls-1" d="M3794.9,1276.9h14.85v128.58h-14.85v-128.58Z"/><path class="cls-1" d="M1063.66,968.1v-499.88l-12.34-91.55h285.94c162.51,0,236.57,69.95,236.57,209.83s-77.14,210.86-245.82,210.86h-205.72v170.74l19.54,91.54h-90.51l12.34-91.54ZM1321.82,752.1c133.71,0,192.34-53.48,192.34-164.57s-56.57-165.6-183.09-165.6h-208.8v330.17h199.54Z"/><path class="cls-1" d="M2299.95,1059.64h-81.25l-20.58-88.46-39.09-92.57h-365.13l-39.09,92.57-20.57,88.46h-74.06l275.66-644.9-19.54-38.06h92.57l291.08,682.97ZM2139.49,833.35l-162.51-384.68-163.55,384.68h326.06Z"/><path class="cls-1" d="M2498.43,968.1v-499.88l-12.34-91.55h289.02c150.17,0,216,69.95,216,176.91,0,80.23-43.2,128.57-128.57,149.14,110.06,17.49,173.83,79.2,173.83,171.77,0,115.2-76.11,185.14-229.38,185.14h-320.91l12.34-91.54ZM2748.36,685.24c119.31,0,183.09-46.28,183.09-128.56s-50.4-135.78-168.68-135.78h-205.72v264.34h191.31ZM2798.76,1015.41c118.28,0,173.82-55.54,173.82-144s-74.05-142.97-192.34-142.97h-223.19v286.97h241.71Z"/><path class="cls-1" d="M3236.89,714.04c0-232.46,142.97-354.85,327.08-354.85,64.8,0,134.74,13.37,212.91,42.17l12.34,78.17-96.68-54.51c-45.26-13.37-88.46-19.55-125.49-19.55-149.13,0-268.45,103.88-268.45,307.54s114.18,315.77,272.57,315.77c36,0,80.22-5.14,127.53-19.55l95.66-54.51-11.31,78.17c-79.19,28.8-146.05,43.2-214.97,43.2-192.34,0-331.19-129.59-331.19-362.05Z"/><path class="cls-1" d="M945.21,552.11c-9.78-23.73-26.27-44.12-44.18-62.25-5.91-5.6-12.26-10.7-18.69-15.7-2.57-1.99-5.19-3.9-7.8-5.86-1.6-1.39-4.02-2.51-4.59-4.7,1.38-.67,3.1-.08,4.53-.69,3.12-1.86-1.02-4.97-2.96-5.91-8.83-4.09-18.88-4.19-28.32-6.1-3.56-.51-6.95-1.85-10.22-3.32-.67-.37-2.75-1.01-1.92-2.18,5.2-3.8,16.93,1.63,21.69-2.17,4.37-7.69-19.68-4.68-23.45-5.23-6.38-.14-12.9.33-19.03-1.79-.76-.3-2.2-.5-2.57-1.46,1.14-1.08,2.76-1.14,4.3-1.38,5.39-.59,11.12.49,16.45-.87,4.04-1.09,1.67-4.22-1.13-4.97-6.27-1.89-12.99-1.02-19.43-.57-4.03.18-8.68,1.33-12.36-.78.63-1.18,2.1-1.84,2.79-3,1.12-2.36-1.67-4.21-3.66-4.78-5.64-1.48-11.53.01-17.18.75-2.35.26-4.85,1.08-7.13.18-1.69-.64-.2-2.59-.78-3.83-5.66-9.46-31.09,5.4-40.21,3.23-2.52-1.67,2.15-3.26,3.09-4.34,3.9-4.12-3.76-4.42-6.39-4.11-7.1.54-13.97,2.67-20.81,4.52-14.79,5.01-30.57,4.74-46.02,4.88-5.72-.03-11.64.66-17.15-1.21-1.76-.57-.1-2.05-.2-3.27.23-2.31-2.2-3.57-4.23-3.31-4.9.6-8.79,3.76-13.21,5.89-4.87,2.69-10.84,3.73-16.26,2.12-1.13-.44-3.77-1.24-2.15-2.73,5.02-4.44,11.53-7.26,17.74-9.75,8.96-3.62,18.95-2.1,28.25-.69,4.36.36,8.97,1.61,13.26.4,2.98-1.77.24-5.48-1.77-6.86-4.04-3.04-9.14-4.08-13.57-6.37,9.67-.3,19.03,3.41,28.22,6.21,6.44,2.1,12.83,5.56,19.74,5.46,3.31-.28,3.28-4.16,1.32-6.12-3.92-4.82-10.67-5.49-15.42-9.09,8.86.1,17.46,6.9,26.44,4.85,3.06-1.15,2.73-4.55.21-6.12-10.9-7.15-24.21-9.56-35.63-15.6,5.52-1.47,11.31.56,16.71,1.99,10.61,2.92,20.01,9.42,30.87,11.47,4.36.6,10.37,2.05,13.28-2.26.59-.87.4-1.97-.22-2.76-5.07-5.91-13.58-7.54-18.88-13.22,0,0,0-.02,0-.03,3.48,0,6.86,1.41,10.19,2.34,4.65,1.45,9.28,3.05,13.87,4.75,10.55,3.63,20.43,9.09,31.13,12.27,5.33,1.43,11.02,2.79,16.52,1.66,9.94-2.68.84-8.21-3.6-10.88-10.78-6.48-22.52-11.11-34.08-15.99-5.38-2.39-11.34-3.89-16.12-7.41,5.7-.71,11.44,1.21,16.99,2.34,8.87,2.07,17.51,5.12,25.85,8.9,14.32,6.29,27.14,15.62,41.57,21.65,2.32.71,4.79,1.7,7.25,1.27,2.84-.66,3.47-3.06,2.05-5.4-3.66-4.92-9.54-7.7-14.65-10.93-5.56-3.27-11.33-6.16-17.18-8.9-6.64-3.09-13.68-5.92-20.39-8.98-2.96-1.63-6.95-2.91-9-5.77.25-.43.76-.5,1.2-.62,3.71-.74,7.55.09,11.19.88,10.86,2.48,20.65,8.04,30.03,13.87,2.25,1.51,4.67-.22,4.38-2.81-1.75-8.95-10.34-14.25-16.64-20.02,11.27.34,23.54,9.14,32.07,16.1,7.83,6.28,14.18,14.48,22.54,20.07,1.5.85,3.67.45,4.21-1.35.73-2.72-.86-5.32-1.61-7.86,5.99,2.78,10.36,8.62,16.54,11.19,1.97.88,5.03,1.01,5.97-1.36,1.24-4.37-7.86-10.7-10.8-13.61-8.51-7.09-17.33-13.94-26.99-19.41-5.86-3.27-11.89-6.22-17.87-9.27-2.65-1.46-5.57-2.44-7.9-4.45,10.09-.65,19.87,3.95,29.09,7.7,10.83,5.08,19.66,13.73,28.1,22.1,8.28,8.16,15.92,16.9,23.71,25.52,1.76,2.17,8.3,8.66,9.04,2.6-1.64-7.78-7.42-14.1-12.47-20-5.68-6.28-11.91-12.43-18.11-18.32-2.68-2.8-5.93-5.25-7.77-8.73,6.26,1.19,11.45,6.3,16.41,10.11,8.41,7.09,16.09,15.22,22.34,24.31,3.64,5.29,6.69,11.03,9.21,16.95,1.85,3.82,2.87,8.24,5.77,11.45,1.28,1.41,3.64,1.04,4.45-.67,2.17-6.47-2.5-12.88-2.93-19.3h0c3,2.37,4.26,6.24,6.29,9.49,1.94,3.2,3.68,6.65,6.33,9.32,4.28,2.71,5-4.29,4.28-7.09-1.69-9.46-6.55-18.07-11.47-26.2-6.95-11.04-15.06-21.88-26.09-29.13-2.48-1.45-5.02-2.8-7.61-4.06-4.26-2.19-8.65-4.12-13.14-5.8-7.87-3.01-15.84-5.73-23.85-8.36-2.64-1.1-5.99-1.64-8.4-3.28,2.37-1.2,5.31-.57,7.79-1.5.93-.33,1.81-1.18,1.66-2.24-1-3.01-5.18-2.77-7.84-3.08-16.12.08-32.11,3.13-48.23,3.64-4.59.23-9.49.36-14.14.26-2.48-.21-5.25.28-7.5-.9h0c.18-.31.48-.52.76-.73,2.18-1.47,5.72-2.29,6.42-5.23.18-4.23-5.65-3.43-8.34-2.52-9.87,3.49-19.25,8.31-28.98,12.19-5.2,2.23-10.47,4.34-16.06,5.37-1.15.17-2.29.3-3.49-.01,1.79-2.96,5.88-3.55,8.15-6.1,3.4-3.48,2.09-8.68-3.38-7.72-.47.09-.93.22-1.38.38-4.26.94-9.35,4.67-12.15,6.54-9.03,6.35-16.7,14.58-26.88,19.2-12.53,5.44-26.54,7.48-39.55,11.67-11.39,3.51-22.36,8.32-32.48,14.64-13.01,7.75-24.7,17.88-34.69,29.32-11.9,13.76-21.79,29.14-33.78,42.83-8.74,9.8-18.05,19.34-28.93,26.79-5.17,3.14-8.26,4.35-9.71,4.27h0c-.25-.14-.47-.33-.66-.55-.02-.03-.03-.06-.05-.09.31-.68,1.06-1.31,1.47-1.89,2.32-2.47,4.99-4.82,7.49-7.16,7.4-6.85,14.85-13.68,21.66-21.13,9.51-9.88,16.23-21.89,24.4-32.83,9.78-12.58,18.95-26.13,31.09-36.56,12.31-10.4,26.79-18.03,41.87-23.66,8.71-3.24,17.39-6.58,26.54-8.48,3.58-.93,7.69-1.26,10.56-3.8,1.03-.91.91-2.57-.4-3.1-6.23-1.91-13.01-.07-19.26-2.05,4.8-1.98,10.33-.73,15.34-1.97,1.98-.48,4.14-.92,5.73-2.26,1.82-1.62-.07-3.54-1.86-4-6.46-1.4-13.19-.42-19.75-.89-1.69-.2-3.65-.14-5.21-.98,5.77-2.51,12.63-1.44,18.85-1.66,10.73.06,21.59,1.06,32.25-.56,2.48-.1,5.51-2.28,3.9-4.94-4.25-5.41-28.62-1.01-34.05-5.74,5.32-3.5,12.15-3.14,18.38-3.98,6.29-.59,12.59-1.12,18.91-1.47,3.57-.63,11.86,1.05,13.2-3.19-.54-4.36-10.11-4.18-13.54-5.03-4.37-.75-8.81-1.38-13.01-2.96-3.64-1.93-1.72-3.2,1.27-3.71,11.52-1.32,23.1.75,34.35,3.42,5.51.91,10.91,3.9,16.55,3.26,3.27-.47,2.89-4.47,1.18-6.43-.83-4.93-43.2-20.56-27.98-22.17,10.19-.07,18.78,7.7,28.9,7.89,3.44.11,5.19-3.01,1.94-5.02-6.51-4.09-14.68-5.25-20.61-10.23,6.53-4.04,30.46,10.13,38.5,11.97,2.4.62,11.54,2.25,9.69-2.52-2.66-3.72-7.56-5.04-11.59-6.8-5.82-2.54-12.41-3.65-17.64-7.34,9.14-2.55,20.91,4.82,29.72,7.51,2.78.82,8.42,3.02,9.42-1.16-.48-5.1-13.49-8.43-17.53-11.66,7.49-1.07,14.82,2.47,21.98,4.35,2.87.59,6.56,2.25,9.21.4,1.09-1.12.19-2.76-.82-3.58-7.29-5.96-16.88-8.21-25.99-9.73-3.07-.46-6.15-.81-9.23-1.14-3.96-.62-8.4-.35-12-2.19,3.01-3.56,14.23-4.45,19.08-4.9,12.97-.7,25.87,1.39,37.86,6.49,5.77,2,10.83,5.53,16.3,8.2,3.05,1.76,10.03,2.83,6.97-2.82-2.38-3.66-6.29-5.98-9.74-8.54-5-3.84-10.84-6.77-15.29-11.24,1.98-.36,3.84.37,5.8.97,4.66,1.67,9.13,3.95,13.51,6.35,3.05,1.63,6.02,3.45,8.98,5.24,2.36,1.33,5.2,3.05,7.98,2.18,6.21-3.26-13.26-12.84-14.82-16.32,7.05-1.87,28.07,17.13,35.83,20.7,2.88,1.69,10.73,3.9,9.24-2.05-2.65-5.61-8.14-9.22-13.05-12.72-5.84-4-12.18-7.38-18.63-10.31-2.87-1.53-6.44-2.14-8.72-4.54,2.8-1.36,6.08-.8,9.2-.74,12.49.82,24.46,5.21,35.55,10.86,3.49,1.76,6.9,3.68,10.41,5.41,2.49,1.25,5.05,2.63,7.92,2.57,2.78.22,5.09-2.19,3.97-4.92-8.06-15.1-28.68-23.1-44.41-27.55-12.49-3.52-25.45-4.99-38.41-4.63-10.69.19-21.33,2.39-32.01,2.13,1.64-1.75,4.27-2.12,6.15-3.59,1.12-.75,1.64-2.41.55-3.42-4.03-2.5-9.68-.03-13.93,1-13.79,4.01-25.84,12.42-39.45,16.8,3.9-5.26,9.8-8.79,14.64-13.23,3.19-2.93,7.1-5.75,9.04-9.74.74-12.1-35.45,21.76-40.98,21.45.59-2.59,2.74-4.51,3.44-7.06,1.04-5.12-4.54-2.46-6.44-.47-6.44,5.91-11.58,13.35-17.89,19.46-1.98,2.03-4,4.02-6.17,5.85-2.05,1.63-4.18,3.44-6.92,3.65-2.13-.23,3.26-7.07,3.46-8.41.77-1.55,1.21-4.53-1.21-4.67-2.85.34-4.74,3.05-6.58,5-2.73,3.24-5.14,6.7-7.72,10.04-1.58,1.64-4.52,7.23-7.1,4.64-1.5-2.14-2.83-4.87-5.55-2.23-1.99,2.02-3.01,4.79-4.18,7.32-1.05,2.4-2.11,5.32-4.88,6.14-2.42.54-4.94,1.05-6.83,2.81-4.51,4.22-6.89,10.17-10.49,15.1-2.81,4.13-6.05,7.96-9.33,11.71-6.37,7.42-12.48,15.06-18.72,22.57-4.37,4.89-8.13,10.62-13.81,14.15-.37-2.48,2.44-7.28-1.32-8.2-6.73-.25-19.65,21.9-23.89,27.84-6.98,11-10.84,33.07-24.72,36.99.07-3.63,2.85-6.79,3.12-10.46.39-1.93-.77-4.59-3.1-3.59-3.11,1.52-4.38,5.14-7.07,7.15-.21-1.51.48-3.01.91-4.44,2.16-6.06,4.89-11.67,8.18-17.25,5.94-10.84,14.4-20.07,23.86-28.01,5.9-5.02,12.31-9.76,18.54-14.42,3.14-2.48,6.83-4.45,9.23-7.74,1.07-1.28,1.95-3.73-.06-4.58-2.89-.86-5.86.88-8.49,1.94-3.18,1.37-6.07,3.67-9.53,4.25-3.26.18,2.15-3.94,3.12-4.42,7.41-4.56,15.09-8.37,23.13-11.8,5.59-2.57,11.7-3.97,17.13-6.9,1.8-.96,3.93-3.1,2.38-5.16-3.09-2.84-9.05-.18-12.67.68-7.73,2.46-14.93,6.62-22.25,10.06-3.97,1.79-7.97,4.04-12.45,4.15,2.24-5.7,17.44-11.6,23.1-15.04,6.73-3.44,12.97-7.69,19.18-11.98,2.83-1.85,5.92-3.27,8.99-4.71,2.35-1.33,9.17-3.52,7.26-7.15-3-3.14-10.31-.87-14.1-.07-5.02,1.16-9.68,3.4-14.85,4.03-1.7.25-.57-1.22-.13-1.97,3.97-5.09,9.88-8.57,15.18-12.23,8.06-5.18,17.06-9.21,26.69-10.17,2.63-.15,6.18-1.85,5.25-5.01-1.36-3.05-5.35-3.56-8.33-3.48-11.6.64-22.37,5.59-33.54,8.2,2.69-3.41,6.63-5.74,10.18-8.2,9.45-6.39,20.15-10.39,31.06-13.57,6.09-1.83,12.12-4.07,18.15-6.15,6.09-1.97,12.52-2.93,18.5-5.24,2.91-.96,8.88-5.28,2.96-6.73-9.49-.96-18.87,2.03-28.08,3.94-6.67,1.51-13.18,3.61-19.83,5.17-.65.1-1.32.23-1.97.12.57-.97,1.61-1.6,2.52-2.21,3.64-2.24,7.47-4.15,11.31-5.99,8.99-4.19,18.48-7.25,28.14-9.52,4.41-1.21,9.07-1.64,13.33-3.3,1.14-.53,2.18-1.77,1.58-3.06-2.67-4.59-18.35-.81-22.98.24-5.06,1.31-10.07,2.88-14.93,4.82-2.47,1.02-4.9,2.13-7.38,3.13-1.43.52-2.95,1.39-4.52,1.02,1.2-1.94,3.34-3.01,5.22-4.31,5.7-3.66,11.65-6.55,17.99-9.05,6.09-2.44,12.35-4.37,18.76-5.92,4.38-1.02,8.9-1.71,13.08-3.43,4.29-1.61,7.91-4.42,11.16-7.59,6.48-5.14,15.59-4.47,23.4-5.77,2.4-.41,8.57-1.4,6.66-5-3.87-3.63-15.31-1.66-20.51-1.31-6.6.8-13.15,2.06-19.6,3.63-5.96,1.31-11.68,3.64-17.79,4.18,2.22-2.53,5.36-3.91,8.36-5.41,6.63-3.03,13.67-5.32,20.76-7.05,14.28-3.85,28.95-5.19,43.77-5.27,3.26-.14,9.71-1.96,7.09-6.31-4.46-4.33-16.79-3.27-22.89-3.39-14.49.33-28.88,2.69-42.9,6.29-1.37.33-2.7.82-4.01,1.34-.76.13-1.53.23-2.32.26,1.73-1.58,3.94-2.72,5.39-4.62.67-.82,1.03-2.1.3-3-2.58-2.12-6.34.08-9.05,1-8.23,3.52-15.97,8.28-23.55,13.08-4.81,2.95-9.33,6.57-14.56,8.76,1.89-4.85,7.25-8.02,8.49-13.16-.08-5.08-5.52-1.7-7.48.25-5.35,4.56-9.66,10.22-13.99,15.72-3.7,4.64-6.9,9.86-11.56,13.6-.41-3.07-1.3-4.31-2.49-4.31-4.81,0-14.56,20.33-17.54,22.27-1.14-1.76-.63-5.02-3.22-5.61-4.42-.6-9.76,14.28-11.14,17.99-1.48,4.48-2.87,9-3.87,13.62-.76,2.9-1.31,6.31-3.72,8.37-.42-.64-.37-1.32-.35-2.1.33-3.8,1.36-7.56,1.04-11.4-.03-2.19-1.64-6.11-4.36-4.41-2.82,2.97-3.26,7.52-4.41,11.31-.93,3.77-1.73,7.59-2.61,11.37-.67,2.47-1.04,5.2-2.71,7.24-.43-4.04,1.02-8.49-1.02-12.25-3.51-4.87-6.04,2.98-6.96,5.8-3.05,9.87-5.99,19.57-9.62,29.27-2.86,7.04-4.47,14.97-8.57,21.39-.46-3.58.65-7.48-1.07-10.85-1.38-2.8-4.03-1.29-5.02.87-2.05,3.82-2.67,8.21-4.14,12.27-1.22,3.56-3.06,7.07-5.03,10.31-12.55,18.52-20.39,38.35-21.97,60.8-.6,4.51-.39,9.34-2.63,13.44-1.83,2.76-2.86-.5-3.17-2.23-1.31-8-.41-16.05.48-24.1,1.32-11.78,4.55-23.35,9.93-33.97,1.95-3.88,4.21-7.62,6.63-11.26,3.09-4.89,7.82-8.8,9.89-14.3.74-1.85-.42-3.38-2.38-2.68-4.46,1.66-7.03,6.24-11.29,8.19,1.35-5.71,6.44-9.91,10.32-14.18,3.68-3.99,8.62-7.04,11.45-11.71.7-1.4.69-3.75-1.14-4.22-1.71-.29-3.28.82-4.67,1.67-2.92,1.76-5.36,4.57-8.75,5.39,3.05-5.18,8.29-8.8,12.49-13.03,4.33-4.31,8.6-8.83,11.7-14.13,1.93-2.81,2.85-8.66-2.34-5.95-4.47,2.91-7.82,7.22-11.88,10.64-1.15.88-2.39,2.25-3.93,2.48.97-4.23,4.58-7.41,7.07-10.85,3.9-4.82,7.89-9.31,12.04-13.98,3.89-4.93,9.42-9.23,11.43-15.34.42-1.56-.3-3.83-2.26-3.56-6.01,1.76-10.64,6.55-15.85,9.83-2.65,1.69-6.91,5.03-6.28-.76,2.25-17.34,16.96-30.93,30.04-41.31,4.21-3.23,8.52-6.33,12.9-9.32,2.79-2.14,6.33-3.61,8.43-6.5.67-1.08.52-2.64-.67-3.28-2.14-.95-4.49.36-6.57.96-5.37,1.87-9.77,5.72-15.08,7.69-7.23,2.26-.47-5.75,1.77-7.37,3.27-2.94,7.22-5.31,11.29-7.18,4.76-2.25,9.62-4.28,14.45-6.35,2.13-.92,4.34-1.88,5.88-3.69,2.31-2.27,1.92-5.09-1.62-5.17-4.57.18-9.07,1.3-13.52,2.32-1.45.33-2.94.93-4.45.65.96-1.63,2.64-2.46,4.33-3.38,5.98-3.08,12.73-4.13,19.05-6.37,4.43-1.53,3.32-6.5-.87-7.37-3.51-.75-7.13.15-10.57.87-8.1,1.73-15.6,5.27-23.12,8.61,6.89-6.51,15.95-10.41,24.23-14.94,3.57-2.38,23.48-9.65,17.66-15.16-1.98-1.37-4.53-.83-6.77-.64-4.9.37-9.91,2.25-14.8,1.46,2.85-6.5,10.93-8.16,15.06-13.57,2.74-4.62-1.89-5.95-5.6-4.5-11.27,3.82-20.33,12.18-29.61,19.34-3.69,2.95-7.18,6.17-11.04,8.92-.25.16-.78.54-1.17.5-.11-2.38,1.29-4.57.67-7.06-.27-1.32-1.5-2.63-2.93-2.18-2.28.9-3.21,3.55-4.3,5.55-4.67,10.1-7.48,20.93-10.98,31.46-.75,2.36-1.51,4.73-2.31,7.05-.58,1.5-.93,3.39-2.4,4.29-1.26-2.05-.65-4.67-.59-6.97.2-3.86.67-7.78.24-11.64-.52-4.3-4.09-4.16-5.78-.65-1.98,3.72-2.62,8.08-3.44,12.21-1.3,7.25-2.03,14.58-2.34,21.93-.45,4.79.2,9.94-1.98,14.4-.99,1.47-2.09,1.51-2.59-.29-.65-2.01-.38-4.31-1.48-6.17-1.45-2.38-3.91-.22-4.41,1.72-1.67,5.12-.78,10.67-2.44,15.8-1.35-3.58-.95-7.64-2.26-11.24-.43-1.06-1.19-2.19-2.4-2.39-4.98-.04-3.76,10.61-4.05,14.07.06,8.86.55,17.73,1.86,26.5.62,4.17,1.42,8.31,2.04,12.48.41,3.42,1.22,7.02.22,10.4-2.35-3.87-2.88-8.83-4.73-13.03-1.91-4.27-8.36-23.52-12.97-23.31-3.88,1.09-.98,12.46-.9,15.86.88,7.62,2.5,15.12,4.4,22.54.81,3.59,1.93,6.95,2.33,10.65,0,.84.18,2.03-.49,2.71-1.43-.12-2.13-2.01-2.95-3.03-2.21-3.26-3.99-6.88-6.73-9.73-6.23-5.56-4.77,4.69-3.87,8.11,2.04,9.55,6.01,18.56,9.53,27.63.99,2.84,2.64,5.62,2.38,8.75-1.08,3.68-7.08-7.47-7.68-8.79-2.03-3.57-3.19-7.92-5.8-11.17-1.33-1.47-2.86-.36-3.02,1.34-.51,3.34.09,6.75.48,10.06,1.31,8.66,2.9,17.31,5.69,25.62,1.49,4.79,4.11,9.33,4.55,14.4.21,4.61-.61,9.27-1.42,13.83-.32,1.37-.61,3.06-1.56,4.25-1.81-2.55-1.79-13.61-6.51-12.14-2.23,1.68-1.48,5.02-1.29,7.43.66,7.47,3.87,14.54,3.69,22.09,0,.11,0,.22-.01.32-.18.43-.44.83-.77,1.14-4.29,1.55-7.86-11.91-7.96-15.31-.06-.26-.08-.59-.07-.99v-.03c.37-3.8,1.94-7.51,1.71-11.4-.05-1.92-1.96-3.41-3.66-2.13-1.49,1.23-2.08,3.2-3.18,4.76.3-7.5,2.58-14.63,4.18-22.03,1.23-5.62,2.89-11.42,1.95-17.2-.33-1.95-1.81-3.61-3.87-2.63-2.31,1.09-3.25,3.62-5.43,4.95-1.18-7.04,1.13-14.55,2.93-21.43,1.2-5.23,4.16-10.06,4.68-15.41.02-1.15-.87-2.2-2.07-2.08-5.25,1.57-6.83,10.91-10.44,14.64-.76-2.81.06-5.75.49-8.6.88-4.86,1.89-9.55,3.1-14.39.34-3.47,8-22.11,1.43-20.86-3.47,1.14-4.86,5.28-6.61,8.17-2.2,4.03-4.03,8.34-6.83,11.99,1.58-10.92,6.76-21.25,9.69-31.89,1.11-3.01-.24-9.5-4.34-5.99-5.22,6.09-6.74,14.48-11.44,20.92-.4-3.09.44-6.17.7-9.39.45-3.87.79-7.67,1.08-11.57-.15-2.96,1.95-9.25-1.13-10.94-6.07-1.58-6.24,10.81-9.37,14.06-.99-2.53-.3-5.33-.24-8.1.41-4.98,1.13-10.05,1.94-15.09.51-4.28,4.94-21.61-1.53-22.11-3.98.3-3.96,5.58-4.82,8.54-.72,3.78-1.4,7.58-2.16,11.36-.49,1.75-.74,4.36-2.34,5.59-2.91-4.68-2.78-10.65-3.89-15.95-1.26-8.35-2.37-16.83-5.18-24.84-1.27-2.77-2.23-6.56-5.17-7.96-2.17-.51-3.63,1.67-4.01,3.54-1.04,4.31-.61,8.82-.8,13.23-.05.63-.13,1.26-.45,1.84-4.77-8.11-5.08-17.87-6.78-27.03-.48-2.75-1.03-5.62-2.59-7.98-1.31-2.17-4.67-3.19-6.27-.78-2.38,1.77-.19,16.52-4.77,9.89-3.97-7.1-7.76-14.32-12.69-20.84-4.42-6.2-9.29-12.3-15.73-16.5-3.11-1.99-7.4-5.54-11.08-2.99-4.77,6.94,13.37,12.61,10.91,19.53-6.19-2.42-11.12-7.63-17.12-10.58-6.1-3.25-26.02-15.03-29.25-4.24.03,2.81,2.84,4.19,5.11,5.11,3.39,1.48,6.83,2.82,10.22,4.27,8.39,3.98,26.34,10.55,29.98,19.21-3.79-.87-6.77-3.4-10.2-5.33-3.92-2.32-8.06-4.41-12.55-5.38-2.94-.67-9.67-1-8.99,3.52,1.73,3.9,6.57,5.02,10.14,6.72,8.11,3.22,16.56,5.77,23.98,10.46,1.28.83,2.8,2.51,2.15,4.13-2.16-.15-4.16-1.63-6.2-2.4-3.9-1.63-8.34-4.01-12.62-2.47-3.12,1.25-1.29,5.06.97,6.2,4.08,2.45,8.82,3.58,13.26,5.23,5.14,1.96,11.02,3.24,14.93,7.34.62.62,1.27,1.84.07,2.19-5.53.34-11.08-1.79-16.67-1.19-4.36.14-6.06,3.77-1.95,6.2,5.45,2.96,12.01,2.59,17.77,4.71,7.31,2.64,13.89,7.4,19.01,13.28,1.37,1.91,3.81,3.93,3.74,6.43h0c-2.13.03-4.19-1.42-6.36-.84-1.41.29-2.13,1.84-1.59,3.14,3.26,6.34,11.47,8.88,14.23,15.57-9.8-5.32-18.04-13.26-27.65-18.95-4.61-2.66-9.06-6.47-14.53-6.96-3.13-.33-4.28,2.63-2.87,5.07.86,1.78,2.49,3.01,4.07,4.12,17.96,11.81,34.72,25.28,49.63,40.83,4.36,4.57,8.64,9.26,12.19,14.5.99,1.55,2.15,3.05,2.25,4.97-4.04-2.68-6.99-6.87-10.62-10.08-6.64-6.19-13.61-12.3-21.8-16.34-3.85-2.22-8.95-2.14-6.88,3.64,3.84,7.62,11.15,12.8,16.43,19.38,7.85,9.4,16.45,18.56,21.78,29.69-2.92-3.31-5.85-6.83-8.8-10.14-4.26-4.44-8.02-10.6-13.89-13.16-3.71-.63-3.45,3.63-2.19,5.89,3.99,7.68,10.43,13.76,15.59,20.64,5,6.59,10.65,13.1,13.94,20.73-5.14-3.59-6.97-11.22-13.15-13.38-3.05-.58-3.84,2.7-2.68,4.93,2.22,4.76,6.15,8.46,9.23,12.65,7.69,10.04,15.98,19.86,21.6,31.28-3.5-2.95-5.87-7.19-10.04-9.35-1.55-.87-3.99-1.12-4.98.67-1.63,4.36,4.29,10.31,6.55,13.88,4.7,6.13,9.48,12.17,11.81,19.69,1.26,4.32,2.68,8.91,1.52,13.47-.3,1.13-1.15,1.88-2.23,1.05-3.43-3.03-4.04-8.06-5.9-12.07-.3-.81-.61-1.62-.94-2.41,0-.03-.02-.06-.03-.09-.05-.12-.1-.25-.16-.38-.09-.21-.17-.41-.27-.62-1.01-2.34-2.2-4.62-3.63-6.73,0,0,0,0,0-.02-.06-.12-.11-.22-.15-.31-2.08-3.23-4.72-6.06-6.64-9.4-2.48-4.58-5.05-9.25-6.96-14.1-1.66-3.57-.6-9.96-5.42-11.01-1.11-.34-2.07.56-3.14.44-2.05-1.49-1.92-4.68-2.08-7-.21-3.84,2.16-7.73.68-11.46-.55-1.32-2.07-2.21-3.47-1.67-1.78.7-2.38,2.7-3.41,4.14-1.86-3.47-1.51-7.69-2.16-11.51-.33-11.23-5.52-18.16-11.68-26.95-2.78-3.8-2.14-8.73-3.62-13.06-.95-3.45-4.62-4.77-6.47-1.2-1.63,2.68-1.13,6.21-1.99,9.13h0c-3.9-2.79-3.01-14.5-2.89-19.1-.05-3.32,1.27-7.41-1.13-10.16-1.35-1.36-3.37-.92-4.52.44-1.76-4.44-.48-9.66-2.86-14.01-1.49-3.27-4.81-4.61-5.89-.26-1.64,6.92.55,14.06.55,21.04,0,.78-.03,1.56-.09,2.34-1.78-1.2-2.41-3.54-3.39-5.38-2.23-4.72-4.68-9.34-7.36-13.82-6.85-11.32-14.64-22.16-23.88-31.67-2.95-2.74-7.33-8.89-11.57-8.74-2.13.28-2.23,2.78-1.49,4.36,3.67,8.83,11.36,15.29,15.9,23.59-2.77-1.68-4.7-4.44-6.84-6.85-4.41-5.32-8.78-10.69-13.2-16.01-6.86-8.48-14.14-16.59-21.61-24.54-3.88-4.13-7.38-8.72-12.02-12.06-1.96-1.5-7.17-4.81-7.53-.31,1.6,6.53,6.68,11.62,10.71,16.81,4.9,6.01,10.21,11.71,14.61,18.11-7.39-5.24-13.98-11.83-21.02-17.59-9.3-7.79-19.05-15.2-29.37-21.59-2.21-1.28-4.77-2.35-7.37-2.1-2.39.52-3.45,3.56-2.02,5.51,4.05,6.03,13.18,7.14,16.32,13.9-5.03-.84-9.46-4.14-14.48-5.39-.37-.06-.77-.17-1.2-.28,0,0,0,0-.01,0-.24-.11-.47-.2-.68-.28-10.24-4.66-26.48-8.2-37.57-6.16-3.93.98-9.17,2.65-10.16,7.11-.09,5.24,6.22,5.94,10.24,5.64,8.06-.49,16.78-2.17,24.23,2.02.85.62,2.42,1.1,2.26,2.38-1.14,3.67-8.67,2.52-11.45,4.72-1.81,1.07-2.78,3.73-1.23,5.4,3.09,2.75,7.77,2.16,11.64,2.55,6.91.3,13.61.76,20.42,2.33,1.23.38,2.82.74,3.96,1.61,1.73,1.91.03,3.89-1.98,4.61-4.03,1.45-11.58,4.44-9.27,9.93,2.43,3.18,7.21,2.73,10.81,3.17,4.89.35,9.78.75,14.67,1.04,9.02.78,18.36.32,26.92,3.72,2.18,1.02,3.02,4.33-.28,4.06-4.77-.03-27.32-3.54-23.79,5.68,6.11,7.22,33.34,2.16,42.26,9.18,5.06,5.17-3.85,2.89-6.56,2.36-3.45-.64-6.9-1.3-10.39-1.7-2.53-.24-5.6-.49-7.63,1.33-4.27,6.17,13.29,9.85,17.04,11.93,9.6,4.18,32.19,14.06,36.71,23.24-7.9-2.36-14.21-8.49-22.13-10.94-2.33-.63-5.26-1.57-7.35.08-.89.74-.98,2.06-.35,3,2.13,2.86,6,3.61,8.46,6.14,1.42,1.16,3.01,4.11.4,4.88-3.53.67-8.85-.64-10.6,3.46-2.33,9,32.22,4.62,37.57,13.98-.31.68-1.09.71-1.74.86-2.37.2-4.78.33-7.07,1.03-2.2.44-3.43,2.87-2.01,4.69,3.54,3.63,9.41,3.07,14.06,4.13,10.55,1.38,18.66,3.48,25.23,12.56,2.82,4.89-3.17,2.21-5.47,1.59-2.35-.73-4.74-1.33-7.17-1.65-4.71-.68-10.26-2.07-14.49.78-1.62,1.24-.72,3.48.84,4.29,5.04,3.75,37.33,7.53,35.36,14.57-2.26.62-4.45-.86-6.76-.93-1.86-.17-3.73,1.11-3.98,3.01-.27,2.41,1.55,4.4,3.23,5.89,10.54,8,21.78,15.04,31.67,23.95,12.67,13.39-3.71,2.18-8.64-.11-4.79-2.19-9.89-4.35-15.25-4.15-2.29.03-5.68,1.48-4.89,4.27.88,2.48,3.79,3.29,5.97,4.29,4.8,1.92,9.55,3.69,14.37,5.81,3.68,1.54,7.37,3.21,10.22,6.13,1.05,1.07,2.32,2.29,2.7,3.9.21.9.41,2.28-.46,2.92-.63.29-1.17.14-1.87,0-3.96-.98-7.11-3.86-10.85-5.5-4.21-1.65-4.99,1.94-2.45,4.72,5.18,6.23,12.65,10.03,17.79,16.3,3.5,4.42,5.51,9.74,8.23,14.63,2.63,4.82,5.93,9.24,8.9,13.85,5.31,8.24,10.09,16.87,14.02,25.86,1.62,4.38,4.26,9.27,3.67,14.13-.13.46-.43,1.14-.97,1.28-.69-.04-1.24-.54-1.73-.99-3.16-3.41-4.5-8.13-6.5-12.3-3.2-7.08-6.85-13.95-10.82-20.62-7.58-12.52-16.16-24.57-26.24-35.21-.18-.17-.41-.44-.68-.5h0c-4.11-5.33-8.03-10.81-12.59-15.77-3.53-3.78-7.86-6.7-11.29-10.57-4.66-5.12-8.32-11.43-11.52-17.64-3.34-6.13-5.4-13.01-9.01-18.97-4.43-5.86-10.42-10.31-15.31-15.77-2.99-3.08-9.1-10.64-11.2-2.68-4.88-3.12-6.96-9.16-10.72-13.36-.86-.93-2.43-1.4-3.4-.37-1.54,1.87-.52,4.48-.27,6.62-1.64-2.07-2.85-4.46-4.11-6.9-.97-1.74-1.64-4.11-3.66-4.89-2.03-.8-3.26.92-4.31,2.34-.42.08-.65-.13-1.06-.36-2.81-1.97-4.72-5.05-6.73-7.85-3.66-4.11-13.13-25.29-18.19-23.55-2.9,1.41-1.07,4.87-.48,7.17.88,3.3,2.4,6.54,2.54,10-3.93-2.99-6.02-7.74-8.96-11.74-4.24-5.98-7.51-12.71-12.91-17.76-1.67-2.21-5.68-2.52-6.24.73-.48,2.29.66,4.51.65,6.78-1.97-.43-3.33-1.97-4.97-3.21-3.45-2.77-6.78-5.82-10.67-7.97-2-1.17-5.65-1.92-6.42,1.02-.51,2.2.82,4.3.99,6.45-3.54-.42-6.27-3.32-9.13-5.43-5.71-4.76-10.52-10.5-16.35-15.11-2.31-1.65-4.93-3.82-7.95-3.44-1.81.23-2.94,1.68-3.85,3.12-.12.15-.41.34-.63.33-5.76-1.51-10.61-5.81-16.51-7.21-1.98-.45-4.7-1.45-6.31.27-1.94,3.6,5.79,7.2,7.45,9.98-1.71.39-3.34-.29-5.09-.59-3.88-.84-7.76-1.67-11.65-2.45-4.17-.84-8.36-1.58-12.57-2.18,0,0-.01,0-.02,0-5.85-1.2-11.8-2.67-17.71-2.26-2,.22-4.03,2.02-2.97,4.12.81,1.73,2.59,2.74,3.49,4.41.42,1.13-.24,1.71-1.22,2.04-.79.14-1.59.2-2.39.25-10.29-.71-23.9-.37-31.17,7.82-2.56,3.27-.55,6.44,3.46,5.8,2.57-.23,4.94-1.38,7.44-1.91.54-.1,1.45-.23,1.96.21,1.96,2.29-6.21,6.47-7.6,8.38-3.61,3.64-8.41,8.48-7.31,14.04,2.13,5.76,9.03,1.97,11.93-1.13,4.29-4.1,8.08-8.71,12.49-12.69,4.79-4.37,10.67-7.93,17.26-8.63,3.3-.12,8.21,1.02,9.09,4.72-1.56,2.58-5.19,2.98-7.68,4.58-3.42,1.76-11.6,7.13-8.71,11.61,3.32,2.26,7.46-1.53,10.22-3.3,4.37-2.86,9.68-6.21,15.14-4.66,1.12.45,2.83,1,3.12,2.31-2.94,2.68-7.56,2.39-10.64,5.03-5.69,4.25-3.43,11.54,3.92,10.75,11.28-2.11,21.97-6.91,33.51-8.21,13.02-2.11,26.47-1.53,39.38,1.65,6.65,2.01,14.69,3.5,18.78,9.68-1.37.76-3.06.19-4.52,0-6.23-1.17-12.49-2.92-18.88-3.05-4.75-.17-17.23,1.08-14.67,8.25,3.03,3.54,8.59,2.28,12.75,2.32,6.72-.24,13.25-.17,19.95,1,2.1.39,4.65.95,6.27,2.56.5,1.99-7.81,1.63-9.46,1.7-11.42-.29-22.92-.09-34.06,2.7-2.26.63-4.57,1.29-6.48,2.74-2.53,1.85-1.27,4.72,1.5,5.22,6.19.93,12.5-.54,18.71-.67,17.8-.64,35.9-.92,53.17,4.12,9.5,2.72,19.35,4.77,27.95,9.94,1.73,1.11,3.4,2.29,4.99,3.6.66.66,1.85,1.38,1.68,2.44,0,0,0,0,0,0-3.38,1.41-7.69.05-11.29-.38-5.7-1.08-11.37-2.28-17.13-2.96-4.78-.41-9.98-1.39-14.58.48-2.73,1.1-2.16,3.92.14,5.03,6.62,3,14.13,3.22,20.98,5.55,2.45.95,9.2,2.9,9.37,5.83-3.28,1.41-7.01-.06-10.59.02-4.1-.04-9.24-.48-12.74,2.16-1.95,1.5-.59,4.18,1.31,5,5.21,2.24,11.15,1.85,16.69,2.55,18.02,2.06,36.28,5.31,53.12,12.35,1.73.86,14.58,7.28,10.94,9.33-5.42.15-10.79-1.76-16.18-2.78-5.46-1.08-11-2.81-16.62-2.42-3.81.14-5.87,3.66-3.04,6.63,1.74,1.75,4.21,2.42,6.5,3.1,4.44,1.21,8.99,1.97,13.47,2.99,3.5.79,7,1.65,10.5,2.48,2.99.66,6.02,1.63,8.29,3.81-2.45,1.26-5.7-.05-8,1.72-1.09.84-1.1,2.42-.29,3.44,1.63,2.13,4.5,2.63,6.94,3.29,3.3.68,6.59,1.13,9.89,1.88,3.38.81,7.06,1.4,9.67,3.92.33.38,1.07,1.2.34,1.52-13.68,1.36,7.69,10.99,11,13.06,6.48,3.57,12.69,7.26,18.75,11.58,8.69,6.29,16.19,14.17,23.48,22.05,3.51,4.22,7.97,8.33,9.79,13.63-5.74-3.19-10.05-8.75-15.11-12.95-6.07-5.56-12.22-10.77-18.65-15.98-1.05-.87-2.12-1.73-3.19-2.58-7.14-6.25-14.77-11.87-22.85-16.86-22.85-14.73-46.66-29.17-73.5-34.87-.27-.11-.54-.22-.8-.34-4.43-1.96-7.85-5.58-11.48-8.74-5.07-4.48-9.47-3.29-15.32-1.63-2.96.21-5.68-.41-8.59-1.23-8.17-2.59-15.87-7.37-21.52-13.94-2.03-2.16-6.5-5.42-8.42-1.49-1.07,1.29-.09,6.11-2.67,4.29-3.9-2.26-17.12-20.56-20.73-12.18-.44,3.12,2.32,5.66,4.08,7.95,3.31,4.06,7.88,6.89,10.91,11.18-10-3.21-18.84-9.48-28.6-13.34-7.94-2.76-6.97,2.46-3,7.03-5.75-2.65-10.5-7.24-16.54-9.35-2.01-1.01-6.14-1.02-5.45,2.2,1.3,3.32,4.98,4.78,7.35,7.24-5.02-.15-9.92-1.84-14.88-2.62-11.12-2.08-22.44-3.4-33.76-3.35-5.36.24-10.97.14-15.9,2.53-3.39,1.3-2.41,4.43.38,5.72,3.97,2.28,8.65,1.97,12.95,3.27-5.53,1.7-11.46,1.09-17.17,1.6-11.45.68-23.09,1.83-33.99,5.58-3.16,1.42-7.74,2.2-9.12,5.76-.46,2.51,2.64,3.56,4.66,3.52,7.86-.19,15.32-4.14,23.26-4.04-5.74,3.14-12.43,4.39-18.38,7.17-11.29,4.91-22.89,10.05-32.16,18.32-2.96,2.89-10.83,11.72-5.41,15.17,5.05,1.46,12.47-5.58,16.71-8.26.07-.05.14-.11.21-.16,11.12-6.35,22.51-15.06,35.74-13.97h0c-2.41,2.69-6.33,3.4-9.42,5.13-7.9,4.13-16.55,8.68-21.49,16.36-2.13,3.23-3.75,10.17,2.4,8.85,5.94-3.25,8.58-10.95,15.12-13.42-.23,2.92-2.89,5.2-3.32,8.17-1.15,3.62,1.63,6.72,4.93,4.15,5.91-5.64,8.64-13.94,15.24-18.96,6.52-3.91.21,4.09-.13,6.42-.77,2.24-1.51,6.35,1.61,7,4.21-.06,7.36-7.72,9.74-10.79,2.95-4.46,6.07-8.92,10.57-12.01,1.8-1.35,4.89-3.01,6.34-.33-.26,1.57-1.52,2.88-2.4,4.16-4.17,5.5-10.03,10.5-11.4,17.54-.73,7.31,6.23,6.7,9.26,1.7,5.51-7.7,10.87-15.52,17.01-22.74,4.25-5.05,9.79-11.01,17.08-9.92,1.91,1.84-5.19,4.81-6.6,5.58-3.15,1.61-6.32,3.42-8.69,6.1-2.98,3.2-1.04,6.45,3.07,4.41,5.4-2.83,9.93-7.12,15.44-9.81,3.56-1.63,7.27-3.77,11.3-3.89,1.62.18,3.21.45,4.65,1.32.59.86-.42,1.98-.95,2.68-4.34,4.82-10.38,7.54-15.76,11-4.16,2.59-8.16,5.46-12.01,8.49-9.58,6.53-8.12,15.76,3.98,8.87,12.2-7.33,22.79-18.16,37.32-20.75,3.97-.55,9.25-2.39,12.97-.03,1.67,1.58-6.35,4.48-7.79,5.41-9.26,4.83-19.71,9.32-26.25,17.78-3.02,7.38,8.17,3.9,11.14,1.68,6.65-3.68,12.87-8.06,19.35-12.01,8.71-5.31,17.96-9.77,27.52-13.33,10.27-3.29,22.97-7.78,33.61-3.76-4.26,2.61-9.6,3.38-14.25,5.32-10.88,3.87-21.62,8.44-31.16,15.05-1.72,1.38-4.27,2.51-4.83,4.8.24,2.97,4.37,2.16,6.41,1.75,10.82-3.29,21.07-8.24,32.07-11.05,17.8-4.33,37.91-10.96,55.5-2.66-.92,1.36-2.82,1.36-4.3,1.57-3.79.3-7.92.12-11.79.22-7.94.11-15.89.64-23.73,1.97-3,.41-9.86,2.11-6.91,6.27,2.17,1.91,5.23.7,7.86,1.27-3.16,1.89-15.84,5.6-12.24,10.8,2.93,2.29,6.46-.47,9.25-1.77,5.44-2.87,11.41-5.03,17.28-6.98,6.87-2.33,14.61-4.15,21.61-1.24,2.23,1.41-1.73,2.41-2.7,3.08-1.02.45-1.54,1.81-.66,2.66,4.62,2.77,10.37.79,15.51.65,4.75-.34,16.91-1.56,20.39,1.82-2.89,1.37-6.15.9-9.35,1.36-3.52.38-7.08.77-10.42,2.01-3.73,1.07-5.02,4.76-.53,5.77,3.68.77,7.46.18,11.18.07,8.16-.48,16.1-.45,24.28.56,5.04.89,17.23,1.51,20.06,5.77-2.42.83-8-.74-8.16,3.05,1.51,4.02,10.64,4.3,14.45,5.34,9.34,1.47,18.21,4.97,26.03,10.32,3.39,2.22,6.72,4.69,9.76,7.51.25.3.48.61.71.93,2.89,3.86,1.17,4.43-2.86,3.99h0c-8.11-1.52-15.9-4.63-23.77-7.1-2.62-.88-5.25-1.74-7.87-2.6-.04-.01-.08-.03-.12-.04-14.32-4.86-28.83-9.12-43.49-12.92-4.55-1.37-8.99-2.98-13.48-4.61-3.04-1.12-6.34-2.29-9.59-1.44-1.58.38-2.92,1.36-4.52,1.65-2.25.36-4.52-.13-6.74-.48-6.59-1.16-13.04-2.51-19.48-4.68-6.44-1.89-12.02-6.5-18.79-7.18-2.54-.26-4.34,2.23-3.95,4.61.07,1.08.85,2.19.39,3.26-1.87,1.29-4.71.05-6.72-.49-8.96-3.19-18.02-7.55-27.58-8.71-2.43-.39-5.49,1.2-4.18,3.99,1.68,3.27,4.93,5.34,7.83,7.44,3.05,2.22,6.17,4.17,8.81,6.91.34.44.78.85.86,1.44h0c-2.02.87-4.36.15-6.48-.14-7.19-1.16-14.28-3.43-21.52-4.46-1.99-.32-4.6,1.01-3.88,3.34,1.06,2.9,4.12,4.03,6.33,5.93-2.33.78-4.86.1-7.24-.07-3.65-.38-7.31-.81-10.99-.64-5.93.03-11.25,2.72-4.47,7.7-4.03.77-8.2.01-12.28.06-9.61-.28-19.27-.14-28.81,1.12-2.68.37-5.52.89-7.68,2.62-2.35,1.82-1.07,4.65,1.45,5.42,2.77,1.19,5.86.96,8.58,2.33-3.73,3.02-9.1,3.8-13.52,5.68-6.23,2.22-12.41,4.58-18.53,7.09-14.62,5.87-28.32,14.24-40.4,24.35-9.48,8.73-18.12,18.41-25.55,28.95-6.36,8.15-30.61,50.69-17.03,56.78,1.63.13,3.04-.91,4.17-1.98,1.99-1.9,3.59-4.16,5.15-6.42,0,0,0,0,0-.01,2.9-3.61,6.17-9.03,7.45-10.03,2.74-2.97,5.53-5.9,8.23-8.92,1.86-1.74,3.95-4.98,6.81-4.46.9,2.36-.83,5.01-.28,7.5.26,2.58,2.95,3,4.64,1.35,3.24-3.42,4.77-8.12,7.21-12.11,4.1-6.54,10.25-19.81,18.39-21.13.33,0,.92.04,1.23.26-1.14,3.81-4.15,6.71-6.35,10.01-2.83,3.78-5.18,7.88-7.67,11.88-1.44,2.33-3.09,4.67-3.61,7.41-.53,2.06,1.12,4.29,3.32,3.82,2.67-.68,4.38-3.17,5.98-5.25,5-7.39,8.77-15.56,13.69-22.99,1.16-1.62,2.2-3.38,3.86-4.56,2.06-1.13,4.68-2.24,3.21,1.39-1.01,3.27-3.65,6.15-4.05,9.63-.13,1.62.78,3.76,2.66,3.68,2.05-.22,3.33-2.18,4.6-3.6,8.41-11.3,14.82-25.05,27.73-32.09,10.22-4.34.54,5.85-1.7,8.74-2.35,3.03-4.42,6.28-6.24,9.65-1.69,3.17-3.25,6.52-3.74,10.11-.83,3.94,2.16,5.99,5.08,2.89,7.31-8.24,11.3-18.83,17.55-27.84,4.99-7.55,24.24-29.45,33.6-27.77-.25,1.37-1.17,2.4-2.08,3.47-2.13,2.37-4.61,4.82-6.89,7.13-8.01,7.95-16.57,15.75-21.99,25.79-1.88,2.72-6.34,16.68.39,15.18,5.09-3.3,7.02-9.58,9.9-14.77,3.24-6.06,6.71-13.22,12.98-16.83.6-.23,2.08-1.02,2.57-.29.14,2.59-1.37,5.06-1.91,7.57-1.12,4.45-2.91,11.73.87,15.26,4.27,1.85,5.28-6.39,6.39-9.08,1.28-4.27,2.77-8.47,4.78-12.48,6.64-12.6,18.08-25.1,33.01-26.63-2.98,5.14-8.21,8.95-12.21,13.35-7.54,8.17-15.48,16.86-19.16,27.57-.8,3.34-1.41,8.18,2.05,10.22,2.16,1.13,4.76-.01,5.99-1.98,7.74-12.79,15.08-25.66,25.06-36.98,2.97-3.36,6.26-6.61,9.89-9.37,2.02-1.45,4.12-3.49,6.74-3.6-.19,1.98-2.04,3.48-3.2,5.01-5.47,6.3-12.52,12.76-14.3,21.32-.45,2.45,1.4,5.3,4.11,4.61,2.19-.5,3.79-2.3,5.11-4.02,3.87-5.77,6.96-11.82,11.73-17.03,2.72-3.04,5.95-5.54,9.18-8.02,4.59-3.27,12.43-9.81,18.27-8.9-1.71,3.67-5.66,5.57-8.67,8.24-4.02,3.6-9.23,6.57-11.68,11.52-.95,2.64,1.75,3.69,3.89,2.97,8.64-3.43,15.74-9.92,23.93-14.28,2.89-1.69,5.91-3.17,8.95-4.58,2.13-.9,4.32-2.22,6.71-1.97-2.96,3.61-7.79,5.35-11.52,8.16-2.25,1.62-5.15,3.24-6.52,5.8-1.04,3.39,3.58,2.32,5.31,1.47,8.87-3.95,16.97-9.13,25.96-12.98,3.38-1.39,6.62-3.25,10.32-3.65.54-.02,1.16-.03,1.73.22-2.62,3.56-7.47,4.65-10.84,7.42-4.5,3.14-3.33,7.85,2.48,6.07,5.81-1,19.92-12.64,25.41-12.64.52,0,.96.11,1.31.33-3.14,3.48-9.11,3.46-11.89,7.59-1.02,1.18-1.29,3.35.46,3.98,2.57.79,5.2-.54,7.65-1.24,4.61-1.57,9.23-3.12,14.02-4.07,10.14-2.19,20.89-1.63,30.92,1.09,3.83.95,7.58,2.2,11.11,4,1.18.67,2.78,1.25,3.46,2.53-.99.59-2.18.45-3.32.44-3.58-.35-7.1-1.13-10.68-1.5-4.52-.49-9.09-.76-13.66-.74-7.44-.57-14.86-.26-22.09,1.96-5.84,1.61-11.28,4.49-17.07,6.24-5.41,1.64-11.04,2.3-16.72,2.35-4.28.39-13.13-1.69-12.94,5.01,0-.02,0-.04,0-.07,0,.18,0,.36-.04.52,0,0,0,0,0,.01-.14.25-.29.5-.46.73-.18.08-.37.16-.55.25-1.76.96-3.6,1.84-5.66,1.91-5.46.35-11,.64-16.48.53-4.92-.02-10.43-.74-15.01,1.53-1.97.85-2.14,3.28-.29,4.39,3.46,2.76,21.85,2.18,7.21,5.99-3.42.79-7.06,1.41-10.7,1.78-4.84.89-16.88-.42-19.06,4.64-.84,6.07,12.42,3.75,16.19,5.9,4.27,1.65-12.49,4.74-13.53,5.21-4.63,1.06-9.26,2.24-13.83,3.51-5.88,1.73-12.2,2.87-17.21,6.6-2.34,1.77-2.02,4.48.91,5.17,5.2,1.28,10.35-1.99,15.52-1.26-.28.99-1.06,1.73-1.77,2.46-3.69,3.26-8.22,5.43-12.37,8.07-14.9,9.22-30.32,17.9-43.59,29.46-3.17,3.56-15.57,12.41-11.78,17.44,3.6,2.79,8.03-2.24,11.01-4.14,3.49-2.68,6.92-5.43,10.46-8.04,4.53-3.07,9.04-6.72,14.39-8.23-.9,2.01-2.56,3.51-4.11,5.08-3.76,3.54-7.74,7.04-11.55,10.55-14.9,13.57-29.15,28.09-40.69,44.67-6.51,9.89-13.76,19.81-17.15,31.27-1.91,6.03,2.16,9.54,6.85,4.64,8.09-8.95,12.73-20.99,22.24-28.65-.36,1.79-1.37,3.31-2.3,4.91-3.81,6.16-7.89,12.44-11.09,19-6.05,12.3-9.22,25.93-10.56,39.53-.4,3.99-.76,7.97-1.44,11.93-.54,5.47-4.76,13.78-.11,18.22,5.77,3.21,9.18-5.8,11.44-9.76.51-1.04,1.02-2.08,1.53-3.13,2.76-4.87,5.62-12.47,6.14-14.14.05-.14.1-.29.14-.44h0c.07-.19.13-.38.18-.55,0,0,0-.01,0-.01,2.28-7.07,3.7-14.37,5.75-21.53,1.43-4.65,2.21-10.04,5.42-13.99.35,3.43-.6,6.63-1.07,10.1-.93,5.47-1.52,11.04-1.91,16.61-.17,6.32-1.14,13.29,1.45,19.26,6.57,6.7,6.12-15.22,6.47-18.55.33-6.11.46-12.22,1.63-18.26.23-1.06,2.06-10.06,3.67-7.45,1.34,3.35-1.19,9.18,3.27,10.67,5.47.27,4.32-12.35,5.04-16.16.59-4.65,1.14-17.24,4.69-20,4.67-.14-.59,23.19,6.98,24.87,5.86.94,4.49-12.56,4.78-16.29.08-4.9-.05-9.93,1.06-14.75,1.4-5.23,3.29-3.54,4.36-.69.71,6.02-1.12,15.14,4.36,16.44,6.99.42,6.64-15.21,7.95-20.2.86-5.81,1.67-11.65,2.76-17.43.62-3.56,1.29-7.18,3.07-10.37,1.04-1.96,2.71-3.82,5-4.3.83-.23,1.2.44,1.49,1.09,0,0,0,.02,0,.03,1.75,4.75,1.52,10.23,2.13,15.29.58,4.5.46,9.56,3.26,13.36,2.58,3.34,6.28,1,6.5-2.63.03-12.63-1.21-25.58,2.76-37.83,1.23-4.69,3.69-9.54,7.82-12.37,1.19-.62,2.55-1.48,2.51.59.25,4.38-5.1,11.34-1.64,14.98,6.06,2.83,8.63-10.89,10.48-14.67,1.41-3.4,3.1-7.32,6.58-9.09-.88,7.62-6.5,14.54-5.26,22.6.1,2.52,2.78,5.8,5.36,3.71,2.54-2.48,2.99-6.31,4.12-9.55,3.52-11.88,8.05-24.01,16.42-33.4,1.48-1.76,11.16-10.02,7.1-2.61-1.63,2.85-3.43,5.74-5.19,8.54-2.15,3.51-5.09,7.4-4.18,11.74.82,3.57,4.99,3.44,7.06,1.02,4.13-4.51,7.16-9.93,10.62-14.94,3.7-5.37,7.45-11.36,13.27-14.74h0c-1.34,8.7-9.88,15.18-11.09,23.87.02,2.25,2.59,3.1,4.42,2.33,4.67-1.89,7.43-6.53,10.38-10.38,7.42-10.43,13.36-21.92,22.72-30.88,2.2-1.94,4.4-4.14,7.23-5.18,1.43-.38,2.29-.15,1.58,1.43-1.57,3.47-5.47,6.18-5.98,10.23.47,7.07,9.89.67,12.45-1.81,7.14-5.72,16.67-19.04,25.99-19.88,3.51.67-5.12,6.66-6.16,7.84-1.52,1.4-4.01,4.68-1.3,6.11,2.62.8,5.24-.97,7.53-2.03,7.42-4.05,14.7-8.65,23.2-10.05,12.33-.93-4.51,7.37-7.63,8.95-5.35,2.8-10.65,5.67-15.94,8.57-11.09,5.99-21.78,12.66-32.62,19.09-12.58,8.06-27,15.59-34.55,29.05-1.83,3.03-3.93,10.36,1.99,9.54,4.2-1.29,7.55-4.47,11.62-6.15.96-.36,2.25-.98,3.31-.53.15.1.26.23.33.36.47,2-2.28,4.55-3.97,5.67-3.89,2.95-7.72,5.99-11.49,9.09-5.13,4.23-10.28,8.47-14.83,13.33-1.7,1.85-3.5,3.8-4.24,6.26-1.15,4.14,3.08,4.19,5.69,2.66,5.84-2.51,10.46-8.37,16.88-9.27-.87,3.87-4.61,6.39-7.37,8.99-10.26,8.57-20.59,17.14-29.93,26.72-1.86,2.22-7.09,7.26-5.12,10.28.89.92,2.34.6,3.41.24,6.54-2.78,11.35-8.33,17.07-12.45,1.63-1.14,3.25-2.8,5.29-3.02.65,9.83-41.93,45.15-37.05,54.61,4.85,6.08,22.41-20.93,28.83-21.4.57.57.16,1.76.07,2.52-.73,2.98-2.47,5.52-4.15,8.06-3.45,5.04-6.95,10.08-9.78,15.51-.43.72-1.78,3.45-3.28,6.83-3.63,6.98-13.89,30.55-8.78,35.12,5.19,2.52,7.56-10.16,11.28-11.84.34-.09.38.36.46.6.27,2.07-.21,4.09-.51,6.25-1.01,6.67-2.12,13.36-2.52,20.1-.3,9-1.16,24.91,5.91,31.39,4.12,2.38,3.8-4.27,3.47-6.71-.36-5.6-1.7-11.27-.72-16.89.72-2.19,2.82.95,3.31,1.87,3.15,7.21,6.93,14.08,11.32,20.62,2.89,4.29,5.52,9.17,10.13,11.88,5.43,2.49,5.3-5.41,4.45-8.75-1.68-6.5-4.28-12.76-6.3-19.16-2.08-6.01-3.44-12.07-4.15-18.47-1.64-24.96,6.91-6.78,13.71,2.52,4.16,5.4,9.5,10.28,15.88,12.92,1.72.69,3.88-.32,3.81-2.35-.05-2.04-1.4-3.77-2.48-5.42-2.66-3.79-5.7-7.28-8.2-11.2-2.62-3.93-4.9-8.07-6.58-12.52-1.31-4.05-3.42-8.39-2.91-12.72,5.63,4.84,8.22,12.62,14.23,17.22,2.73,2.58,7.62,3.22,7.19-1.82-.85-4.61-4.14-8.32-6.39-12.33-3.25-5.09-6.07-10.23-8.29-15.95-1.95-5.7-5.1-13.1-2.99-19.13,3.26-4.57,5.77,10.78,6.73,12.67,1.4,4.38,2.5,9.42,6.09,12.57,1.44,1.12,3.48.3,3.8-1.48.8-4.79-1.26-9.66-1.96-14.38-.98-4.85-1.8-9.75-2.32-14.67-.37-4.98-1.1-10.16.06-15.08.39-1.04.67-2.51,1.71-.95.09.11.16.23.25.35h0c2.4,14.85,13.35,43.49,23.45,49.13,5.69,1.28.37-8.47-.62-10.7-7.87-16.81-18.93-40.93-13.01-59.51.89.89,1.24,2.25,1.56,3.45.95,4.35,1.39,8.82,2.1,13.22,1.59,8.38,2.16,17.79,7.51,24.76,2.21,1.83,3.88-.5,3.84-2.76-.02-13.12-4.17-25.89-6.15-38.8-.75-5.49-2.35-11.18-1.14-16.71,2.3,2.75,2.29,6.78,3.4,10.08,2.74,9.85,5.28,20.05,10.42,28.96,2.19,3.72,7.48,6.92,8.48.62.31-3.1-.85-6.09-1.7-9.02-1.57-5.25-3-10.56-3.97-15.96-1.12-6.86-1.64-13.71-1.49-20.75.17-2.74.04-5.84,1.57-8.25,1.38,1.83,1.5,4.37,2.17,6.51,1.13,4.83,2.28,9.74,4.06,14.39,2.67,5.72,5.31,14.98,11.92,16.97,4.14.34,2.66-5.55,1.6-7.86-4.71-13.3-13.3-33.07-9.43-47.01,2.72,5.67,2.07,12.42,4.32,18.3.99,4.35,6.9,12.06,8.63,3.71.46-9.41-3.17-18.55-2.3-28.04,3.78,9,4.02,19.47,8.56,28.32,1.17,2.03,2.7,5.01,5.4,4.94,3.99-1.2,2.54-6.68,2.05-9.77-5.24-20.16-8.35-42.05-1.21-62.15.65-1.83,3.96-6.34,5.03-2.48.67,4.48-.94,9.08-1.19,13.58-.58,5.44-.75,10.95-.15,16.4.57,3.12.74,8.87,3.88,10.42,1.41.35,2.38-1.06,2.85-2.2,2.34-7.35,1.62-15.37,3.13-22.92,1.56-9.14,4.39-18.4,10.19-25.81,1.07-1.37,2.88-2.57,4.69-2.38,3.51,1.24-2.78,14.46-3.41,17.58-3.04,9.14-4.03,18.72-5.35,28.21-3.84,21.57-9.05,45.19,1.24,65.78,3.53,7.51,10.06,12.8,15.9,18.44,1.87,1.94,3.58,4.1,5.03,6.43.43,1.23.78,2.49,1.07,3.76.55,2.69.4,5.74,2.2,8,1.49,1.69,3.79,2.88,3.77,5.47-.21,2.71-.51,5.79,1.63,7.97,1.12,1.19,2.5,2.18,2.95,3.84.63,2.01.93,4.1,1.13,6.19-.09,1.8-.19,3.62-.24,5.44-.17,5.77-.25,11.55-.35,17.33-.2,11.32-.39,22.65-.57,33.97-.17,11.17-.37,22.34-.54,33.5-.37,23.58-.76,47.16-1.15,70.74-.39,24.26-.77,48.52-1.17,72.77-.4,24.21-.79,48.42-1.18,72.63-.37,23.82-.77,47.64-1.15,71.47-.32,20.15-.65,40.29-.98,60.44-.35,7.98-.7,15.97-1.13,23.93-2.66,36.01-4.06,72.18-7.54,108.13-3.68,30.46-8.16,60.91-16.38,90.53-2.75,10.29-6.65,20.32-12.74,29.18-4.11,6.38-13.95,19.62-1.4,22.71,7.52,2.21,15.61,3.11,23.46,3.53,12.7.78,25.44.37,38.14.02,18.22-.53,36.46-.53,54.68-1.28,9.05-.47,18.08-1.39,27.06-2.51,5.2-.86,10.85-.32,15.68-2.64,8.64-4.91,3.55-13.54.18-20.1-3.88-8.03-7.36-16.25-10.4-24.63-7.83-20.84-8.85-43.55-10.72-65.55-1.39-17.15-2.25-34.36-3.51-51.53-1.99-25.67-3.37-51.39-4.14-77.12-.34-9.94-.79-19.89-1.08-29.83-.05-9.49-.11-18.98-.17-28.47.04-1.54.09-3.08.15-4.62,0-.22-.07-.43-.18-.61-.15-26.66-.3-53.33-.46-79.99-.16-27.95-.33-55.9-.48-83.85-.16-28.18-.34-56.36-.49-84.54-.14-26.73-.31-53.46-.47-80.19-.08-12.95-.16-25.9-.24-38.85-.07-11.61-.12-23.21-.27-34.81-.04-3.12-.12-6.23-.17-9.34-.06-2.81-.12-5.63-.19-8.44-.01-.68-.03-1.36-.05-2.03h0c.13-4.56.44-9.09,1.12-13.6.66-3.15,1.82-6.27,3.85-8.83,1.42-.42,2.9-.72,4.23-1.38,10.15-5.26,11.26-17.83,12.1-28,.43-4.04,1.54-7.98,2.5-11.93,3.16-13.87,3.15-28.52-.71-42.25-3.51-12.27-8.74-23.96-12.76-36.04-.75-2.57-1.41-5.43-1.12-8.26.1-1.24.83-4.21,2.37-2.49,2.16,2.35,3.22,5.55,4.63,8.4,2.66,6.14,5.54,12.55,7.74,18.95.9,2.62,1.64,5.27,2.47,7.91.73,2.04,1.41,4.53,3.39,5.7,3.13,1.06,2.79-3.47,3.61-5.29,1.85-4.15,2.89-1.41,2.85,1.48.36,7.16-2.97,33.23,2.39,36.82,4.78,1.4,3.77-11.24,4.28-14.13.49-3.79.5-16.49,4.15-17.96.65.28.79,1.12,1.02,1.72.8,3.02.92,6.05.98,9.26.3,9.55-.92,19.16-.53,28.71,1.2,13.29,7.87,8.28,9.94-1.27,1.81-6.51,1.87-13.33,3.34-19.9.33-1.05.5-2.26,1.33-3.05,1.75,1.86,1.55,4.75,1.78,7.16.19,3.4.15,6.65.12,10.13-.07,6.46-.06,12.93-.39,19.38.18,4.43-2.87,27.61,3.37,27.02,3.16-1.08,3.07-7.56,4.15-10.4.57-2.63,2.83-10.43,4.95-4.03,1.34,5.72.42,11.88-.31,17.72-.5,4.68-3.94,11.05-.76,15.23,1.09,1.08,2.83.72,3.76-.38,4.54-5.63,5.68-13.26,7.87-20,4.07-15.44,5.94,2.68,5.08,8.19-.48,9.52-3.06,18.84-4.16,28.3-.64,3.42-.69,14.01,5.28,10.42,5.9-6.11,8.61-14.59,12.05-22.21,4.46-11.35,7.86-10.68,4.65,1.4-1.89,7.6-5.13,14.99-8.76,21.95-1.41,3.63-5.65,9.92-3.39,13.6,4.18,3.9,10.72-10.99,14.57-8.31,1.48,3.7-3.28,9.79-5.21,13.09-2.09,3.46-4.98,6.58-6.18,10.49-1.04,4.75,1.93,6.41,5.91,3.99,2.94-1.7,5.11-4.4,7.16-7.05,1.19-1.35,2.14-3.5,4.08-3.79,3.95,6.08-6.99,22.33-10.38,28.09-2.78,4.86-8.52,9.61-7.16,15.71.72,2.06,3.04,2.65,4.97,2.04,5.06-1.56,8.13-6.53,11.7-10.16,3.73-4.02,6.74-9.15,11.75-11.69,2.15-.91,1.2,2.91,1.25,4.18-.87,6.27-4.12,11.81-6.44,17.6-1.48,3.14-2.02,10.04,3.35,8.43,3.39-1.27,5.66-4.45,7.33-7.53,4.17-8.05,5.29-17.17,6.78-26,.28-1.69.6-3.39,1.01-5.05.26-.78.42-1.89,1.27-2.26,3.71,6.83,1.85,15.33,1.24,22.8-1.09,9.21-2.22,18.5-4.51,27.51-.99,5.93-7.71,22.14-3.25,26.43,1,.81,2.39.42,3.41-.14,4.96-2.76,7.39-7.93,9.65-12.96,3.81-8.96,5.36-18.69,6.96-28.25.52-2.61.59-5.37,1.82-7.79,3.69,6.27,1.4,13.84,2.5,20.65.42,2.72,3.2,6.05,6.12,4.32,4.61-2.96,4.82-18.65,4.49-26.49-.05-3.95-.38-7.92-1.02-11.87-.49-2.98-1.1-5.94-1.26-8.97,0,0,0-.02,0-.03.03-1.32.14-2.63.67-3.79.5-.68,1.27-1.09,2.36-.9.44.04.87.14,1.29.28,1.88,1.18,4.04,3.14,6.18,1.59,4.85-5.22-4.79-17.96-7.52-23.1-1.61-3.04-4.54-5.88-4.25-9.56t0,0c10.79-.58.1-12.4-2.73-16.52-2.11-2.77-4.12-5.53-6-8.49-1.57-2.6-3.64-5.24-3.71-8.4,6.29,3.7,10.76,10.94,17.9,13.31,1.62.4,3.61-.34,4.06-2.06.79-3.5-1.98-6.71-3.48-9.68-5.24-8.74-12.71-15.82-19.86-22.98-3.15-3.33-7.33-6.2-8.9-10.67,6.67,2.82,11.55,8.9,18.04,12.2,2.63,1.65,8.35,1.78,7.71-2.58-1.56-5.95-6.55-10.31-10.36-14.93-7.11-8.21-16.33-14.41-25.17-20.62-2.39-1.66-4.78-3.34-7.03-5.19-1.08-1-2.59-2-2.55-3.63,8.18,4.5,15.56,11.23,24.9,13.4,4.2.86,9.42,1.72,13.09-1,3.35-3.46-1.24-7.55-4.32-9.22-9.38-5.19-19.65-8.88-28.23-15.48-3.5-2.89-14.12-10.76-12.13-15.78,2.99-.47,6.11.62,9.16.62,1.68.04,3.52.08,5.03-.78,2.04-1.26,1.65-4.14.01-5.57-2.37-2.25-5.65-3.22-8.65-4.35-4.93-1.68-9.88-3.27-14.65-5.38-6.37-3.05-11.79-7.71-17.19-12.2-11.96-10.15-23.69-21.07-36.65-30.04-4.77-3.37-9.66-6.55-14.57-9.68-3.76-2.59-8.16-4.84-11.05-8.43,7.14-.58,13.88,3.03,20.47,5.71,11.6,5.24,21.58,13.44,32.61,19.78,1.78.72,4.3.92,4.62-1.53.14-3.49-2.78-6.21-4.4-9.08-1.39-2.38-3.45-4.77-3.57-7.58,2.1,0,3.53,1.56,5.18,2.81,2.57,2.21,5,4.68,7.31,7.18,4.47,5.04,8.33,10.4,11.99,16.09,3.67,5.71,6.97,11.8,12.08,16.39,2.57,2.29,5.96,5.79,9.71,4.4.96-.37,1.74-1.22,1.78-2.27.09-3.63-2.02-6.85-3.61-9.98-2.53-4.57-5.29-9-7.99-13.46-1.51-2.51-3.06-5.01-4.49-7.57-.76-2-2.89-4.58-2.14-6.87,1.47.68,2.16,2.22,3.16,3.51,3.77,5.39,6.51,11.77,10.2,17.27,1.55,2.49,8.94,13.2,10.19,5.59.16-1.45-.56-2.78-1.14-4.06-1.5-3.13-3.27-6.1-4.87-9.17-2.2-4.94-5.68-9.99-5.51-15.56,1.92.88,3.06,2.84,4.29,4.47,4.68,6.83,7.9,14.34,11.3,21.92,2.19,4.72,4.08,9.58,6.56,14.17,1.03,1.7,2.06,3.59,3.77,4.67,1.86,1.22,3.53.26,3.54-1.91-.22-6.65-2.71-12.93-4.06-19.44-.68-3.56-1.96-7.91-.8-11.46h0c2.94.99,4.25,4.23,5.78,6.73,6.15,11.47,5.31,25.06,8.68,37.41,1.12,4.62,7.3,31.85,14.22,27.24.7-.73.77-1.8.81-2.75.05-4.11-.62-8.2-1.1-12.27-1.14-10.98-3.76-22.15-2.34-33.22,2.47-7.45,6.07,6.43,6.58,8.85,1.27,5.93,2.02,12.07,2.82,18.09.99,6.26,1.3,12.81,3.57,18.77,1.37,3.5,4.67,4.4,6.65.87,1.4-5.66-.05-11.62,1.56-17.29,3.94,4.17,4.03,24.53,13.04,19.04,1-.89,1.45-1.52,2.21.03,2.79,7.88,1.88,16.93,6.05,24.36,1.7,2.51,4.57,1.7,4.82-1.26,1.04-6.02.31-12.12-.27-18.15-.29-4.94-1.74-10.18-.6-15.13,6.61,5.24,8.43,15.86,10.25,23.77,1.34,7.04,2.24,13.96,2.57,21.18.63,6.22-.79,13.71,2.51,19.24,9.61,6.09,5.72-24.73,5.12-29.11-1.19-9.16-2.51-18.31-4.03-27.42-.51-4.26-1.95-8.67-1.22-12.94,3.22,1.93,5.05,5.51,6.91,8.71,5.77,10.62,7.24,23,7.73,34.99.14,5.89-.21,11.73-.41,17.62.02,3.47-.44,7.13.54,10.49.68,1.88,2.74,2.99,4.43,1.58,2.12-2.28,1.89-5.75,3.42-8.37,1.88,2.36.46,12.34,4.94,11.15,1.73-.9,1.91-3.22,2.29-4.93.78-4.33.93-8.84,2.65-12.96,1.4,3.82.62,8.2.92,12.25.43,8.92.91,17.92,2.65,26.72.63,2.26,1,5.08,3.26,6.36,2.87.88,3.86-1.63,4.07-4.05.73-10.59-.99-21.18-1.05-31.78.12-4.73-.47-9.64.85-14.23,5.3,5.16,2.7,25.68,5.45,33.18,1.12,2.23,4.13,1.64,5.34-.19.84-.86,1.84-3.47,2.58-1.02,1.96,8.02,1.28,16.64,1.78,24.87.33,8.71.34,17.44,1.11,26.12.65,2.91.79,10.69,4.13,11.5,1.21.18,2.2-.74,2.48-1.85,3.18-10.97-1.72-58.75,5.72-63.19,5.4,3.26,3.87,27.57,4.57,34.49.26,8.22.04,16.44-.11,24.66-.04,3.99-.04,7.85.65,11.81.25,1.42.6,2.94,1.69,3.96,8.97,6.69,8.94-36.89,9.03-41.74-.03-5.9-.22-11.8-1.01-17.64-.42-4.25-1.51-8.43-1.16-12.73h0c2.13,2.35,2.57,5.83,3.63,8.84,1.07,3.87,2,7.72,2.79,11.65,1.57,8.19,2.56,16.29,2.72,24.68.24,4.64.03,9.36.93,13.94,1.07,4.94,5.72,3.56,6.61-.64,4.69-25.65-2.88-61.17-12.46-85.26-3.64-8.43-7.9-16.59-12.52-24.52-2.39-4.29-5.03-8.41-6.79-13.05,0-.02-.04-.16-.09-.3h0c2.99.24,5.58,2.69,8.68,2.24,4.17-1.05,1.65-6-.44-7.95-6.03-6.29-13.4-11.1-20.4-16.21-5.06-3.73-10.79-6.78-15.08-11.44,3.03.2,5.91,1.79,9.01,1.57,1.23,0,2.66-.87,2.26-2.26-.58-1.83-2.54-2.75-4.08-3.66-9.67-5.27-20.85-7.21-30.1-13.31,3.78.37,7.56,2.85,11.39,1.62,2.36-.96,1.25-3.57-.4-4.63-10.57-6.22-22.22-10.6-32.88-16.74-3.04-1.96-6.74-3.21-9.05-6.1,4.84.29,9.14,3.85,14.15,3.11,1.29-.17,2.85-.69,3.21-2.11.27-5.62-11.34-7.77-15.7-9.25-8.59-2.59-17.55-3.64-25.99-6.75-1.57-.77-6.87-4.6-1.92-4.33,3.06-.02,9.5,2.68,10.6-1.69-.48-10.57-69.31-22.68-81.04-26.8-7.83-2.23-15.09-5.81-21.49-10.88-1.88-1.4-3.77-2.82-5.4-4.53-.52-.62-1.09-1.31-1.14-2.15.1-.23.23-.42.4-.58,7.07,1.71,13.76,5.13,20.27,8.31,6.71,3.27,12.99,7.36,19.75,10.51,3.71,1.71,6.83-.49,4.53-4.39-6.34-9.77-17.76-14.91-27.6-20.53-4.49-2.39-9.17-4.4-13.72-6.67-1.95-1.12-4.38-1.86-5.66-3.8,0-.06,0-.16.03-.18,3.58-1.54,7.75.11,11.36.94,8.52,2.19,16.25,6.41,23.99,10.5,8.05,3.43,34.04,24.45,23.95.79,1.8.4,3.22,1.72,4.66,2.78,5.43,4.27,10.69,8.75,16.11,13.02,3.52,2.26,6.91,6.68,11.36,6.56,8.34-1.45-9.4-20.24-11.63-23.41-4.53-5.53-9.51-10.81-13.14-17.01-4.86-9.14,7.56.66,9.84,2.72,16.28,13.08,26.25,31.86,36.5,49.67.85,1.56,2.61,3.35,4.48,2.28,4.93-4.13-2.85-19.15-5.3-23.93-2.26-4.45-5.14-8.54-7.65-12.82-.93-2-2.53-3.94-2.54-6.22h0c11.84,7.58,23.36,31.76,27.2,45.23.68,2.12,2.12,6.16,5,4.78,1.61-1.05,1.94-3.16,2.27-4.91,1.36-8.73-2.5-17.13-5.13-25.25,8.39,6.91,13.92,16.97,17.61,27.1,1.78,4.53,2.76,9.43,4.92,13.81,1.4,3.47,5.49,3.85,7.08.33,2.3-9.01-2.66-20.73-6.66-28.85-5.85-11.21-14.91-20.32-23.99-28.98-3.74-3.52-7.69-6.81-11.49-10.28-2.2-2.14-4.87-4.2-6.09-7.09,6.83,1.36,12.45,6.41,18.08,10.29,11.19,8.24,21.54,17.82,29.3,29.5,1.82,2.47,4.67,4.81,7.93,4.26.24-.03.71.04.95.18,3.79,2.75,5.74,7.52,8.4,11.3,4.89,7.56,9.01,15.61,14.14,23.01,1.53,2.05,5.91,7.27,7.9,3.18.47-2.44-.95-4.75-1.75-6.97-3.08-7.14-7.07-13.84-11.14-20.45-2.57-4.19-5.23-8.32-7.73-12.55-1.56-2.93-3.67-5.84-4.01-9.24.03-.03.05-.07.08-.11.01-.01.03-.03.04-.05,3.63,1.94,5.78,5.86,8.24,9.05,4.5,6.57,8.85,13.55,12.66,20.59,2.89,5.38,5.66,10.8,8.72,16.08,1.62,2.54,3.03,5.57,5.8,7.04,2.14,1.18,4.24-.77,4-2.99-.8-5.06-3.63-9.71-5.74-14.36-2.23-4.7-4.45-9.42-6.29-14.3-.86-2.98-2.58-6.48-1.52-9.58,7.44,2.71,18.96,26.42,21.37,34.29,2.26,5.42,2.25,11.99,5.97,16.68.89,1.11,2.64,1.68,3.77.61,1.23-1.17,1.2-3.01,1.22-4.57.08-3.51-.64-6.93-.89-10.43,4.59,7.36,5.86,16.82,12.01,23.22,2.36,2.12,5.33.59,5.02-2.53-.87-9.11-10.07-23.54-6.57-31.98,7.09,1.33,15.96,30.89,22.43,38.28,2.07,3,4.54,6.07,6.7,9.08,2.43,2.99,4.41,9.22,8.79,9.59,3.9-.46,2.26-8.28,1.88-11.01-1.23-7.96-5.26-15.19-6.69-23.05h0c2.87,1.89,4.95,4.85,7.12,7.49,4.33,5.63,8.26,11.55,12.04,17.59,1.96,2.45,6.5,12.1,9.93,10.96,5.28-3.81-4.12-20.98-4.17-27.13,2.4,2.37,3.53,5.6,4.94,8.65,2.8,6.39,4.82,13.13,7.32,19.69,2.7,6.18,3.52,14.54,9.58,18.51,2.38,1.19,5.02-.5,5.83-2.84,3.51-9.67-5.6-29.05-8.99-38.94ZM436.62,359.99c-8.66-19.14-16.85-38.5-26.35-57.25-16.22-31.27-35.07-61.53-57.53-88.76-20.79-24.77-46.03-45.46-73.57-62.34-7.16-4.24-14.42-8.22-21.84-12.07-4.02-2.1-8.09-4.12-12.24-5.95-1.25-.68-3.06-1.06-3.68-2.46,24.98,7.94,48.43,20.38,69.41,36.05,16.12,12.19,29.84,27.2,43.11,42.4,25.6,28.65,43.14,63.16,60.4,97.23,9.42,18.34,18.31,36.97,26.32,55.98,2.66,6.72,6.06,13.6,6.76,20.94-4.37-7.52-7-15.91-10.78-23.78ZM405.45,385.96c-4.88-5.17-9.5-10.58-14.5-15.65-3.18-3.35-6.7-6.29-10.09-9.42-7.58-7.12-14.6-14.8-21.82-22.28-12.66-13.36-25.99-26.04-39.45-38.56-25.36-24.38-52.86-47.14-84.3-63.25-12.39-6.52-26.05-9.51-39.64-12.4-13.08-3.01-26.21-5.84-39.26-8.97-2.44-.66-5.37-.63-7.6-2.03,48.55,7.03,89.77,16.34,130.39,45.54,37.3,26.12,68.62,59.71,98.52,93.81,7.2,8.01,14.87,15.59,22.18,23.51,4.67,5.28,9.86,10.27,13.33,16.47-3.07-1.61-5.28-4.34-7.77-6.77ZM621.43,380.05c19-12.52,39.03-23.46,60.54-31.03,24.48-9.52,50.48-14.52,76.6-16.77,4.74-.03,19.14-2.89,20.67,3.08-.99,2.72-8.7,1.64-11.52,1.88-3.78-.02-7.57,0-11.35.05-16.09-.24-31.81,2.86-47.22,7.4-19.61,5.48-38.75,12.68-56.38,22.97-17.23,10.03-34.38,20.28-50.61,31.89-5.63,4.07-11.16,8.3-16.8,12.36-2.58,1.64-5.19,4.01-8.27,4.72-.12,0-.25.01-.37,0h0c4.14-10.89,33.91-29.4,44.73-36.53ZM542.11,457.86c8.25-7.42,15.6-15.78,23.6-23.46,3.6-3.24,8.18-5.84,13.16-6.08,2.07-.26,6.63.65,3.63,3.26-3.93,2.67-8.63,4.03-12.49,6.93-12.86,9.38-22.53,24.12-38.24,29.08-.14,0-.28,0-.41-.02,2.4-4.05,7.42-6.33,10.74-9.7ZM586.16,336.52c15.08-16.8,30.61-33.41,47.94-47.97,38.98-32.99,81.38-64.05,132.04-75.62,12.92-3.18,26-6.18,39.44-5.86,3.42.11,6.72.26,10.15.64,1.64.31,3.61.33,4.92,1.47h0c-2.96,1.93-6.81,1.73-10.25,2.29-5.19.52-10.4,1-15.58,1.64-12.56,1.5-25.02,3.78-37.19,7.26-29.76,8.43-57.03,23.85-81.93,41.97-25.74,18.9-49.28,40.74-71.49,63.65-13.56,13.63-25.74,28.51-37.54,43.66-11.87,15.16-23.42,30.6-34.31,46.46-5.57,8.1-10.59,16.57-16.19,24.65-1.79,2.3-3.55,5.57-6.52,6.57-.14.04-.21-.1-.24-.21-.08-1.77.59-3.38,1.13-5.12,1.85-5.27,4.51-10.25,7.34-15.07,3.07-5.56,6.88-10.75,9.46-16.57.82-1.72.97-4.81-1.72-4.5-1.15.06-2.22.77-3.37.71.23-6.01,12.37-17.88,16.83-22.36-.96,4.94-5.88,8.03-7.52,12.69-.38.87.08,2.04,1.1,2.06,1.74-.16,2.93-1.65,4.14-2.8,15.88-20.34,31.85-40.65,49.36-59.65ZM531.13,337.54c11.46-28.81,21.59-58.51,38.05-84.97,9.38-15.24,21.76-27.99,34.17-40.82,7.85-8.12,15.01-16.88,21.77-25.91,6.59-8.99,12.8-18.3,20.26-26.62,12.26-13.18,27.64-23.47,44.34-30.19-3.5,3.79-8.47,6.08-12.81,8.84-6.76,4.08-13.47,8.39-19.19,13.87-7.31,7.21-13.62,15.37-19.89,23.48-10.2,13.34-21.25,25.99-31.92,38.94-12.38,15.59-24.04,31.79-34.11,48.98-9.61,17.11-16.72,35.52-25.46,53.07-8.91,18.99-19.14,37.49-25.7,57.47-4.45,13.83-8.37,27.84-12.43,41.8-1.31,4.65-2.43,9.35-3.93,13.94-.4,1.04-.71,2.17-1.51,3.02-1.14-3.95.24-8.16.86-12.15,1.25-5.98,2.79-11.9,4.4-17.78,6.06-22.17,15.26-43.39,23.11-64.97ZM492.97,342.52c1.4-15.06,3.17-30.07,5.59-45,2.57-15.87,5.8-31.76,11-47,4.88-14.34,11.85-28.1,16.69-42.48,10.23-27.81,10.34-58.58,23.77-85.31,1.71-3.36,3.51-6.84,5.65-9.98,2.75-2.8,5.17-6.02,8.45-8.22,4.6-1.99-6.94,14.75-7.61,17.2-7.29,15.34-12.68,31.62-16.85,48.07-3.54,18.44-7.24,36.92-15,54.13-6.02,14.35-10.4,29.32-14.7,44.28-3.49,11.99-6.86,24.04-8.74,36.4-2.13,14.18-2.51,28.55-4.65,42.74-.58,3.66-.79,7.51-2.29,10.92-.26.44-.5.99-1.01,1.22-.15-.09-.22-.13-.32-.31-.49-.92-.59-1.98-.67-3.01-.19-4.47.36-9.1.7-13.61ZM490.61,371.67c3.84-6.59,5.35,3.13,5.4,6.29.33,8.97-.51,17.86-1.27,26.88-1.01,5.82-1.09,11.88-3.08,17.48-.96-4.77,0-9.82-.14-14.69.03-7.91-1.25-15.74-1.99-23.61-.05-3.99-.44-8.5,1.09-12.35ZM474.36,505.65c2.27-1.85,3.9-4.28,6.46-5.83,2.37-1.5,5.59-1.82,8.16-.51,2.5,1.46,3.96,4.2,6.38,5.81,1.96,1.8,6.74,2.47,6.21,5.86-1.28,2.13-3.43,3.66-4.43,6.02-1.26,2.38-1.96,5.15-4.15,6.93-3.45,2.07-5.81,5.25-7.93,8.58-.61.91-1.71,1.92-2.91,1.97-2.38-.38-1.76-7.47-.66-9.12,1.75-2.93,5.65-4.66,5.66-8.54.38-3.16-1.46-7.18-5.08-7.1-2.53.04-4.59,1.27-7.14,1.65-2.82.51-5.76.09-8.71.6-2.79.38-5.35,2.2-8.01,3.26,0,0-.01,0-.02,0-1.07.3-3.34.53-3.53-.93,6.27-9.96,12.52-2.7,19.71-8.67ZM470.09,580.92c1.75-2.03,4.05-3.41,6.16-5.03,2.63-1.87,5.02-4.7,8.32-5.27-.6,1.77-2.3,2.85-3.35,4.34-2.48,3.19-3.39,7.45-6.12,10.49-1.7,1.79-3.79,3.6-6.33,3.94-1.12.21-1.8-.67-1.8-1.73-.22-2.63,1.51-4.77,3.13-6.74ZM460.16,576.37c-.35.35-.78.82-1.3.96-.96-.77-.89-2.21-1.25-3.45-.47-2.87,1.35-5.57,2.77-7.93,2.56-4.34,6.68-8.5,11.89-9.22,1.61.21,1.85,2.06,1.52,3.37-.81,3.52-3.86,5.81-6.49,8.03-2.92,2.27-4.82,5.45-7.15,8.26ZM485.61,604.01c2.23-.49,3.52,1.82,3.58,3.78.32,5.31-5.16,8.17-9.1,10.48-2.39-1.52,1.71-8.88,2.48-11.1.41-.84.98-1.62,1.78-2.14.41-.29,1.07-.49,1.26-1.02ZM469.04,639.5c3.14-3.77,13.51-7.35,13.03.76-1.25,7.18-8.74,10.48-13.2,15.48-.03,0-.06,0-.09.01-.16.02-.33.05-.49.06-3.74-.1-1.76-5.08-1.84-7.4-.1-3.2.07-6.57,2.59-8.91ZM471.93,664.42c1.75-1.9,4.05-3.18,6.19-4.59,3.81-2.29,6.75-5.62,10.47-8.08,2.66,2.54.3,6.76-1.02,9.52-2.34,5.02-7.03,8.45-11.1,12.07-2.8,2.45-5.25,6.13-9.26,6.5h-.01c-4.36-.03-4.27-4.17-1.96-6.83,2.25-2.85,4.34-5.84,6.69-8.6ZM452.68,1250.16c.48-7.07.69-21.74,5.37-26.9,5.88-1,12.01-2.58,18.09-2.66,3.58-.11,7.17.03,10.73.39,1.48.24,3.47.16,4.83.99-5.22,4.09-23.61-.43-24.95,6.96.38,3.7,6.47,3.25,9.23,3.95,3.84.74,8.1.79,11.4,3.16-2.31,1.43-5.04,1.53-7.72,1.71-5.35.41-10.79.1-15.92,1.97-4.89,2.49-1.42,6.82,2.64,7.56,7.55,1.66,15.34,1.82,23.01,2.74,2.89.33,6.11.52,8.99,1.55.23.12.79.38.92.68-3.68,4.75-22.42,3.24-28.7,3.51-3.98-.25-18.53.29-17.92-5.6ZM463.57,919.62c.68-9-.77-29.51,9.59-33.11,6.82-.43,13.8-.28,20.66-.28,2.6.04,5.51.08,7.57,1.9.68.6,1.32,1.77.54,2.53-.5.5-1.16.7-1.82.9-3.81,1.08-8.01,1.44-11.9,2.42-4.84,1.2-9.95,2.73-13.5,6.42-5.15,5.14-4.03,12.69,1.83,16.79,5.06,4.12,11.91,3.25,17.5,6.32,1.38.83,3.7,2.54,3.07,4.38-3.39,3.36-19.15-.81-18.47,6.05,1.65,3.1,5.65,3.52,8.77,4.4,1.57.51,3.83.59,4.87,2.06-1.9,1.96-5.32,1.6-7.84,2.38-5.47.91-8.81,5.1-5.55,10.3,1.95,3.18,5.36,5.23,8.94,6.08,3.32.95,7.06,1.12,9.94,3.2-2.47,1.4-5.59,1.04-8.34,1.44-3.45.44-7.22.22-10.4,1.76-1.51.81-1.36,3.05.12,3.8,1.94.98,4.1.87,6.06,1.81,2.24,1.06-3.39,4.15-3.32,5.97-.37,3.54,4.33,3.63,6.78,4.22,1.96.63,10.3,1.28,7.66,4.68-2.61,3.07-7.18,2.52-10.87,2.99-4.27.33-8.68.57-12.66,2.27-1.98.72-3.48,3.19-1.34,4.67,4.26,2.34,9.46,1.98,14.07,3.28,4.18.92,5.79,2.31,1.61,5.28-3.3,1.87-7.39,1.65-11.08,2.11-2.53.21-6.69.88-6.53,4.17,1.23,4.53,9.86,3.61,13.65,4.33,3.91.47,8.26.86,11.97,2.7,2.9,1.54,2.55,5.65-1.06,5.76-5.42,1.34-26.42-1.68-26.76,5.82.66,5.45,17.22,5.39,22.11,7.19,1.81.45,3.64.96,5.3,1.82,2.69,1.23-.37,2.8-1.99,2.95-3.85.72-8.44.18-11.73,2.62-4.76,7,9.69,7.97,13.77,9.04,5.59,1.2,5.1,3.35-.28,4.3-4.16.89-10.01.4-12.95,4.08-.62,1.1-.02,2.44,1.02,3.02,4.66,2.01,10.1,1.19,14.85,3.16,7.37,3.12-4.44,4.98-7.19,4.76-5.49-.1-22.93.21-25.24-5.4-1.83-5.56.82-11.54-.08-17.26-.45-3.4-1.7-6.65-2.22-10.05-1.57-13.3-1-26.86-.93-40.24.01-17.37,1.22-34.7,2.1-52.04.35-9.28-.63-18.51-.31-27.79ZM481.56,843.01c2.88,1.59,5.11,4.07,7.68,6.08,1.72,1.6,4.17,2.65,5.29,4.77-.5,5.35-10.81,4.37-14.74,4.45-4.44-.22-9.1-.13-13.24-2.02-2.37-1.74-2.01-5.25-2.24-7.9.44-9.57-4.3-36.77,8.78-38.48,4.15-.35,14.73-2.88,16.47,2.3.12,5.63-6.52,8.08-8.99,12.51-.88,1.58-1.08,3.31-1.39,5.1-1.02,3.62-7.5,2.55-7.63,6.81.81,4.02,7.02,4.32,10,6.38ZM482.3,874.51c1.64.93,3.98,1.17,5.22,2.8-.99,2.59-9.57,2.04-12.19,2.17-3.77.03-11.16-.34-9.61-5.88.67-3.03,2.45-6.25,5.68-7.09,5.46-1.12,11.2-.19,16.75-.57,2.2.09,9.08-.88,10.01,1.45-1.19,5-13.13.48-16.57,3.6-1.35,1.03-.71,2.92.71,3.52ZM476.53,1108.43c4.61.92,12.62-.53,15.82,3.47.81,1.58-.04,3.88-1.84,4.29-7.54,1.43-16.37-1.74-23.42,2.33-1.41.89-1.99,2.85-.87,4.2,1.64,2.1,4.46,2.51,6.68,3.74,3.5,2.06,6.2,5.35,10.02,6.89,3.18,1.52,7.27,1.08,10.06,3.27-1.98,3.41-8.25,3.79-11.96,3.99-5.19.08-10.37-.25-15.47-1.43-4.4-1.03-7.98-2.05-7.72-7.43.01-6,.58-11.99,1.04-17.96.67-5.65,1.36-12.74,6.7-16.07,3.28-1.03,15.72-2.18,17.7.94.46,1.23-1.06,1.93-1.98,2.39-2.59,1.37-6.76,1-8.1,4.16-.39,1.93,1.74,2.97,3.33,3.22ZM488.04,1213.34c-7.18.59-14.19,2-21.34,2.79-12.83,0-10.11-3.59-9.69-13.91.56-5.65.18-11.53,1.61-17.03,1.54-2.44,4.8-1.5,7.16-2.82,3.58-1.64,2.46-4.9-1.2-5.17-2.49-.41-5.11-.35-7.43-1.43-1.09-.42-.9-1.51-.79-2.45.63-8.04,1.12-16.46,4.49-23.9,1.56-3.31,3.77-3.26,7.03-3.34,4.97-.17,9.75.65,14.63,1.94,5.1,1.54,10.57,2.2,15.28,4.78-1.53,1.11-3.47,1.08-5.35,1.22-4.2.06-8.41-.26-12.62-.1-3.75.17-17.05.86-14.41,7,2.83,3.07,7.97,2.32,11.8,2.87,6.6.49,13.31.89,19.64,3.23,2.17.66,3.02,1.8.62,3.11-3.37,1.24-7.19,1.05-10.62,2.22-4.55,1.29-6.53,5.76-.77,7.1,3.21,1.21,13.71.25,14.66,3.8-3.41,6.97-26.1,5.32-30.37,12.09-1.57,2.48.53,5.11,2.82,6.14,7.86,3.66,17,2.37,25.29,4.49,3.2.67,7.88,2.42,2.68,5.03-4.14,1.57-8.71,1.75-13.12,2.35ZM501.51,1090.32c-4.02,1.69-8.5,1.62-12.81,1.6-6.47-.08-12.76-.51-19.21-1.37-2.38-.55-8.33-.25-7.54-3.99,1.13-4.71,6.89-3.67,10.57-4.39,1.59-.14,3.06-.86,4.66-.55,1.35.12,2.62.61,3.94.99,7.04,2.55,14.64,1.49,21.77,3.47,3.27,1.04.5,3.47-1.39,4.23ZM475.1,729.95c1.76,2.85,5.54,3.13,8.56,3.48,1.36.18,8.54.63,6.51,3.04-1.46,1.41-3.63,1.6-5.53,1.95-3.51.79-7.42.5-10.67,2.1-3.06,2.22-1.01,6.3,2.15,7.1,3.23,2.38,30.08.63,26.68,5.39-5.49,5.44-16.41,2.36-23.54,4.27-2.41.38-6.32,2.63-4.12,5.38,4.03,3.24,9.68,2.64,14.68,3.33,16.14,1.31.69,7.07-5.3,9.55-3,1.38-7.26,1.63-8.87,4.91-.75,1.98,1.36,3.61,3.16,3.77,3.35.38,6.64.38,9.95,1.17,4.53.69,10.54,6.28,2.81,7.78-6.53.51-13.53-1.01-19.8,1.64-2.1.64-3.44,2.56-5.34,3.43-2.73-1.85-1.53-8.61-1.66-11.71.16-4.28.23-8.55.25-12.83.3-12.46-1.11-24.87-.63-37.32.37-4.29-.03-8.57-.36-12.85-.18-2.8.61-5.94,2.91-7.78,3.46-2.33,8.06-1.74,12.08-2.42,5.54-.27,11.23-1.81,16.71-.59,3.81.71,10.23,4.64,7.02,9.03-2.59,2.44-6.53,1.38-9.77,1.63-4.4.29-20.67-1.23-17.87,6.56ZM484.71,706.52c-3.21,1.04-6.65.85-9.98.76-2.45-.17-5.07.23-7.38-.8-3.27-1.83-2.67-6.29-.56-8.87,3.56-4.46,5.56-4.87,9.56-.56,3.92,3.24,9.29.21,13.15-1.7,3.03-1.84,8.44-6.78,10.81-1.63,1.09,6.01-11.03,10.89-15.6,12.8ZM452.47,1273.05c.31-.8.67-1.58,1.08-2.34,2.4-5.02,8.09-5.97,13.22-6.05,3.72-.2,7.43-.27,11.16-.4,5.71-.15,11.49-.61,17.19-.82,2.1.04,4.36-.56,6.28.55,2.09,1,1.17,2.97-.5,3.84-5.96,4.05-24.6-.25-26.05,7.92.36,8.2,27.33,4.5,33.9,6.67,4.79.9,3.01,3.43-.25,5.01-4.98,1.86-10.68,1.71-15.95,2.01-7.93.2-15.89.21-23.82-.25-5.37-.26-10.7-1.1-15.8-2.89-4.74-1.31-1.43-9.89-.45-13.26ZM522.25,629.6c-.19-1.91-2.19-4.08-.75-5.85,2.99-.34,2.94,3.46,4,5.37.56,1.16,1.45,2.11,2.54,2.78.07.05.5.32.78.56,1.2,1.22-.97,2.85-2.19,2.88-3.09.07-4.07-3.23-4.38-5.74ZM530.46,622.69c-1.65-.17-2.55-1.89-3.51-3.08-1.46-1.96-3.19-3.8-5.21-5.23-3.56-2.68-8.58-3.58-10.66-7.91-1.84-3.65-1.46-7.97-3.02-11.74-1.8-4.71-5.05-8.85-.52-13.23,2.26-.51,3.58,2.16,3.91,4.06.49,9.13,5.97,17.11,13.88,21.6,3.7,2.24,6.6,6.21,6.69,10.69,0,1.46.23,4.27-1.57,4.85ZM505.51,636.6c2.35-2.66,1.16-13.8,5.15-13.2,2.89,1.42,1.4,5.8,1.69,8.42-.12,3.1,1.07,5.96,1.23,9.05-.34,4.03-4.27,6.56-4.98,10.51-.64,2.1-.43,5.58-2.99,6.35-2.81-.3-3.41-3.86-3.86-6.1-.33-2.13-1.38-4.42-2.26-6.46-.49-1.18.23-2.35.99-3.23,1.6-1.74,3.89-3.14,5.03-5.33ZM493.76,637.44c-2.49-3.01.87-6.48,2.99-8.68.75-.72,2.49-.57,2.88.51.31,3.66-3.72,5.77-5.86,8.17ZM451.64,266.58c-4.99-28.72-9.49-57.96-22.33-84.44-5.85-12.35-12.45-24.36-20.07-35.71-1.5-2.67-9.5-13.31-8.07-15.63.41.14.79.34,1.14.57,3.79,4.25,7.02,8.98,9.94,13.87,9.75,16.7,18.76,34.11,25.51,52.27,7.15,20.83,12.17,42.49,16.55,64.1,4.48,22.02,7.97,44.22,9.7,66.64.65,9.14,1.13,18.28,1.39,27.44-.18,3.3.7,7.58-1.18,10.55-.06-.06-.13-.12-.19-.2-.39-.44-.71-.91-.97-1.4-.43-1.33-.42-2.86-.6-4.27-.38-5.33-1.04-10.63-1.74-15.92-.53-7.8-.9-15.6-1.37-23.41-1.48-18.29-4.67-36.39-7.75-54.47ZM452.74,584.19c1.85,1.7,1.2,4.45.1,6.41-3.44,5.89-8.67,10.64-12.05,16.58-2.12,3.65-3.44,7.68-5.28,11.46-.69,1.19-1.43,2.67-2.75,3.27-1.55-6.23,7.02-24.8,11.06-30.15,1.63-1.73,6.32-10.27,8.92-7.57ZM292.19,363.77c-18.28-5.58-36.99-9.94-55.81-13.25-24.22-3.68-48.72-4.44-73.15-5.6-9.68-.29-19.39-.66-29.06.01-3.78.26-7.52.99-11.3,1.18-1.02.02-2.12-.07-3.03-.66,25.24-2.58,50.67-4.14,76.03-3.05,55.04,2.83,109.28,18.81,157.1,46.22,20.63,11.48,40.11,25.26,59.05,39.38,7.36,5.66,14.58,11.52,21.58,17.65,4.24,3.77,8.3,7.42,11.86,11.95,1.26,1.84,2.97,3.62,3.21,5.93,0,0,0,0,0,0-1.86-.39-3.12-1.88-4.62-3.11-3.51-3.14-6.53-6.59-9.81-10.07-5.63-5.89-11.96-11.07-18.26-16.21-37.55-29.29-79.24-53.46-123.79-70.38ZM66.5,508.54s.02-.02.04-.03c.03.17.09.34.16.5-.1-.14-.16-.3-.2-.47ZM380.23,451.11c-6.26-2.16-12.65-3.93-19.25-4.64-31.26-3.39-62.72-5.08-94.16-5.13-20.79.74-41.63,2.78-62.12,6.31-9.47,1.96-18.75,5.39-27.92,8.52-18.9,6.38-37.55,13.81-55.61,22.33-11.67,5.53-23.39,11.13-34.26,18.14-6.09,3.61-11.13,8.85-17.15,12.5-.56.15-1.13.16-1.69-.12-.12-.07-.26-.22-.34-.36-.17-.32-.22-.66-.19-1.01,6.81-5.84,13.61-11.87,21.17-16.79,6.14-4.13,12.73-7.61,19.28-11.04,14.87-7.98,29.89-15.76,45.64-21.92,19.18-7.97,39.02-14.24,59.53-17.71,25.4-4.76,51.19-6.78,77.04-6.01,25.39.34,50.85,2.77,75.6,8.63,16.44,3.67,33.16,7.6,47.29,17.25.73.61,8.14,5.28,4.86,6.03-2.16-.06-4.15-1.28-6.13-2.09-4.8-2.16-9.52-4.48-14.29-6.7-5.55-2.62-11.5-4.27-17.31-6.2ZM153.33,642.89c0-.06.01-.12.01-.18.05.04.1.07.15.11-.05.02-.11.05-.17.07ZM392.9,540.69c-4.74,3.77-9.81,7.29-14.57,11.08-20.39,15.26-35.85,35.92-47.86,58.2-12.78,22.15-22.58,45.9-30.17,70.29-4.2,13.53-8.06,27.15-10.9,41.04-.92,4.49-1.71,9-2.7,13.47-.74,2.76-1.17,6.07-3.4,8.13-1.55-3.58-.35-7.99-.3-11.84.53-5.92,1.26-11.82,2.16-17.7,2.62-17.86,7.08-35.47,13.26-52.45,15.03-41.67,38.27-81.28,72.61-109.9,4.3-3.23,21.6-16.95,25.96-15.46-.2,2.28-2.45,3.6-4.1,5.15ZM411.7,488.75c-24.78.15-49.51,3.71-73.55,9.67-35.72,9.4-72.24,21.3-100.76,45.7-17.27,14.21-33.19,30.45-46.8,48.25-7.06,9.42-12.96,19.64-19.26,29.58-3.79,5.4-8.6,14.48-14.67,19.01-.11.03-.21.06-.32.09-3.08.7-2.66-2.24-1.83-4.63,21.06-35.55,41.82-72.96,75.86-97.75,38.99-29.62,86.35-47.95,134.84-54.22,19.71-2.22,39.64-2.35,59.41-1,4.24.5,8.86,1.22,13.07,2.25,4.26.9,15.55,5.2,4.37,5.92-10.1-.33-20.18-2.65-30.37-2.86ZM438.55,663.17c-1.54-.52-1.85-2.61-2.36-3.98-.53-1.78-1.13-3.64-1.95-5.49-2.44-5.36-6.51-12.1-2.37-17.71,4.21-.82,3.87,6.78,4.59,9.57.67,4.51,3.74,8.12,3.79,12.81-.04,1.5.08,4.17-1.69,4.79ZM445.57,651.65c-.56-5.76-4.39-10.48-4.95-16.2-.1-7.84,5.11-14.75,10.98-19.62,4.16-3.51,9.29-5.47,14.27-7.68,6.17,3.46-4.52,5.87-6.08,8.7-1.98,2.31-2.53,5.43-4.25,7.89-1.39,1.85-3.25,3.37-4.32,5.46-1.96,4.3-1.56,9.42-.29,13.87.93,3.01,2.89,5.52,4.91,7.87,1.47,1.6,2.64,4.05,1.37,6.17-2.04,3.3-5.74,5.81-5.79,10.08-.55,2.66.32,8.86-2.55,10.07-1.33-.26-1.63-2.01-2.07-3.12-2.35-7.64-.25-15.66-1.23-23.5ZM444.2,1312.75c.18-1.71.5-3.54.91-5.31,1.09-5.44,4.43-9.11,10.26-9.04,8.82.38,17.61-.69,26.35-1.86,9.1-.87,18.26-.96,27.39-1.09.26,6.13-22.76,4.39-27.51,4.98-4.93.15-10.01.44-14.81,1.76-1.89.55-4.91,1.59-4.43,4.08,1.94,3.58,10.94,4.07,14.79,5,6.61,1.06,13.16,2.46,19.7,3.88,10.6,2.57-8.51,4.38-11.04,4.21-9.26.32-18.47-.97-27.72-1.29-4.39-.49-9.25.09-13.3-2.01-.92-.83-.67-2.19-.6-3.3ZM441.51,1341.88c1.9-2.57,3.8-5.34,5-8.36.49-1.2.9-2.54,1.46-3.79.48-.57.9-.98,1.25-1.12,4.44-3.34,15.7-3.39,25.7-2.48,3.77.66,7.53,1.51,11.25,2.31,4.71,1.1,10.24,2.82,13.48,6.73h0c-2.26,1.69-5.25,1.52-8.05,1.76-2.6.09-5.2.05-7.8-.03-3.77-.12-7.32-.33-11.09-.91-4.21-.62-8.47-2.17-12.74-1.19-1.67.35-3.93,1.57-3.28,3.6.76,2.02,3.04,2.8,4.9,3.5,2.97,1.05,6.03,1.87,9.03,2.8,4.47,1.37,8.89,2.86,13.44,3.92,3.3,1,7.74.68,10.37,3.04-1.37,1.84-4.13,1.93-6.26,2.09-8.03.17-15.96-1.76-23.73-3.96-9.43-3.11-14-3.85-23.48-.26-5.31.51-1.01-5.72.56-7.64ZM435.17,1376.74c3.51-3.26,7.73-7.41,5.28-12.54-2.83-10.39,35.81-4.21,42-4.69,5.21.12,10.4-.16,15.59-.52,6.07-.07,13.18-1.72,18.48,2.06-1.98,2-5.13,2.18-7.78,2.77-5.06.84-10.52,1.37-15.72,1.47-8.21.31-16.45.03-24.65.57-4.46.31-20.03.78-12.99,8.3,3.57,2.51,8.32,1.15,12.4,1.27,5.39-.15,11.17-.09,16.64.05,4.79.29,10.12-.19,14.18,2.9,2.52,3.96-3.63,4.22-6.21,4.15-4.67,0-9.33.03-14,.26-15.82.56-31.58,2.34-47.41,2.63-1.29-.05-2.68.08-3.81-.7,1.97-3.12,5.45-5.26,7.99-7.99ZM485.66,1416.57c-18,.64-35.99.89-53.99,1.4-3.71,0-7.45.46-11.08-.53-3.42-1.59-7.14-.57-10.72-.82,3.63-4.31,9.21-7.83,14.7-9.32,5.2-1.04,10.77.54,15.89-1.33,2.35-.71,7.11-3.26,4.81-6.14-1.46-1.18-3.51-1.06-5.28-1.22-5.53-.31-11.12.42-16.61-.26,2.37-3.59,7.07-3.14,10.86-3.49,7.33-.42,14.71-.77,22,.36,6.74.7,16.21,6.21,4,8.68-4.69,1.3-10.41,1.22-14.15,4.67-2.22,2.58,1.14,4.68,3.63,4.33,15.29-.58,30.49-2.7,45.79-3.14,6.48.18,22-1.41,26.73,2.53-5.4,4.26-28.67,3.68-36.58,4.27ZM537.48,516.32c-.23,3.45-1.36,7.52-5.2,8.44-3.63,1.38-4.63,6.19-8.47,7.29-7.09,1.6-11.94-1.44-15.75,6.88-.46.69-1.13,1.29-2,1.3-1.35.04-2.34-1-3.08-2.01-1.1-1.45-2.74-2.49-4.5-2.99-1.13-.41-2.53-.42-3.44-1.28-.44-2.71,3.01-3.97,5.04-5.07,4.22-2.06,9.83,2.76,12.61-2.87,1.92-3.56-1.65-6.49-1.79-9.8,1.79-3.42,6.73-.52,9.31.49,3.26,1.59,10.8,4.66,10.83-1.45-.01-1.85-1.5-3.29-1.57-5.11.35-1.37,1.83-1.72,3.39-1.72,1.25,0,2.54.22,3.38.31,1.53,2.17,1.39,5,1.23,7.59ZM572.49,546.88c17.67,14.92,35.31,30.02,49.96,48.01,11.78,14.84,20.73,31.97,28.73,49.12,8.14,18.34,13.98,37.6,20.28,56.63,3.74,11.48,7.68,22.69,10.41,34.51.81,3.46,1.61,6.92,2.14,10.44.19,1.81.66,3.71.23,5.52-2.97-3.6-3.55-8.66-4.89-13.08-2.16-8.45-4.52-16.84-7.06-25.19-6.5-21.19-15.12-41.7-24.89-61.59-13.55-29.32-32.1-55.97-53.84-79.78-14.08-15.16-28.73-30.63-46.89-40.95-1.4-3.04,3.09-1.96,4.52-.95,7.65,5.03,14.19,11.57,21.3,17.33ZM563.88,478.55c2.25-.82,4.69-1.22,7.09-1.78,5.32-1.28,10.38-3.42,15.71-4.66,11.58-2.14,25.84-2.15,34.67,6.75.24.26.46.53.67.81-.67,4.56-11.92.34-15.09.19-9.56-1.51-19.6-1.46-29.18.43-3.43.81-6.73,2.23-10.37,2.51-4.15.65-10.93-1.32-3.51-4.25ZM660.14,502.27c20.21,7.95,39.28,18.87,57.75,30.29,19.11,12.26,37.54,25.91,54.79,40.71,20.53,16.85,38.3,36.87,51.97,59.69,4.08,6.53,7.96,13.06,11.18,20.09,1.4,2.97,2.81,5.95,4.04,9,.55,1.26,1.16,2.73.42,4.03h-.01c-3.05-1.46-4.38-4.93-6.13-7.79-1.9-3.66-3.82-7.62-5.78-11.31-6.72-13.14-15.35-25.18-24.39-36.84-11.68-14.57-26.16-26.58-40.51-38.42-12.99-10.86-26.87-20.55-41.18-29.59-26.07-16.71-53.52-32.32-83.41-41.09-15.58-4.02-31.71-5.61-47.74-6.61-5.31-.28-10.48-.39-15.84-.57-4.57-.35-9.52.14-13.91-1.45,0,0-.04-.04-.08-.07.96-.86,2.2-1.04,3.48-1.38,5.41-1.15,10.92-1.38,16.49-1.47,9.37-.2,18.72.35,28.05,1.26,17.45,1.36,34.49,5.12,50.83,11.5ZM917.28,532.78c-3.57-2.05-6.22-5.57-9.09-8.53-3.72-4.03-7.5-8.03-11.58-11.7-10.27-9.01-21.07-17.47-32.27-25.32-7.29-4.78-15.08-8.77-22.85-12.72-17.52-8.74-35.79-15.89-54.2-22.5-20.19-6.97-40.34-14.64-61.5-18.14-17.59-3.05-35.56-2.04-53.32-1.28-22.18,1.29-44.56,4.49-65.49,12.16-9.19,3.29-18.45,6.44-27.4,10.38-9.45,4.51-18.8,9.27-28.01,14.26-5.57,3.11-10.92,6.57-16.36,9.91-3.06,1.71-6.06,3.98-9.66,4.37,1.57-2.15,3.87-3.45,6.08-5.02,4.25-2.87,8.59-5.61,12.94-8.33,23.7-15.01,49.96-25.65,76.87-33.39,26.45-7.12,54.12-8.99,81.44-8.42,18.08.39,35.9,3.84,53.59,7.37,41.41,9.14,80.41,28.33,114.6,53.22,17.08,12.57,33.81,26.28,46.22,43.69,0,0,0,0,0,0Z"/></svg>