<svg id="Layer_1" data-name="Layer 1" xmlns="http://www.w3.org/2000/svg" viewBox="0 0 2391.77 712.5"><defs><style>.cls-1{fill:#fff;}.cls-2{fill:#76a2dd;}.cls-3{fill:#adc2e9;}</style></defs><path class="cls-1" d="M864.4,449.8,817.68,365H804.56v84.8H749.84V225.16h91.84q26.55,0,45.28,9.28t28,25.44a70.94,70.94,0,0,1,9.28,36,66.84,66.84,0,0,1-12.64,40q-12.65,17.6-37.28,25l51.84,89ZM804.56,326.28h33.92q15,0,22.56-7.36t7.52-20.8q0-12.8-7.52-20.16t-22.56-7.36H804.56Z"/><path class="cls-1" d="M950,311.88q10.4-20.81,28.32-32a73.89,73.89,0,0,1,40-11.2q18.87,0,33.12,7.68a56.6,56.6,0,0,1,21.92,20.16V271.24h54.72V449.8h-54.72V424.52a59.17,59.17,0,0,1-22.24,20.16q-14.24,7.68-33.12,7.68A72.61,72.61,0,0,1,978.35,441Q960.43,429.65,950,408.68t-10.4-48.48Q939.63,332.68,950,311.88Zm112,16.32a38.46,38.46,0,0,0-55.36-.16q-11.37,11.68-11.36,32.16t11.36,32.48a38.1,38.1,0,0,0,55.36.16q11.35-11.83,11.36-32.32T1062,328.2Z"/><path class="cls-1" d="M1163.4,311.88a78.86,78.86,0,0,1,31.68-32q20.33-11.2,46.56-11.2,33.6,0,56.16,17.6t29.6,49.6h-58.24q-7.37-20.47-28.48-20.48-15,0-24,11.68t-9,33.44q0,21.76,9,33.44t24,11.68q21.12,0,28.48-20.48h58.24q-7,31.36-29.76,49.28t-56,17.92q-26.23,0-46.56-11.2a78.86,78.86,0,0,1-31.68-32Q1152,388.36,1152,360.52T1163.4,311.88Z"/><path class="cls-1" d="M1384.9,441.16a82,82,0,0,1-33-32q-12-20.81-12-48.64,0-27.52,12.16-48.48a82.57,82.57,0,0,1,33.28-32.16q21.12-11.2,47.36-11.2t47.36,11.2A82.57,82.57,0,0,1,1513.38,312q12.16,21,12.16,48.48T1513.22,409a83.31,83.31,0,0,1-33.6,32.16q-21.28,11.2-47.52,11.2T1384.9,441.16Zm73.92-47.68q11-11.52,11-33t-10.72-33a34.65,34.65,0,0,0-26.4-11.52q-16,0-26.56,11.36t-10.56,33.12q0,21.44,10.4,33A33.66,33.66,0,0,0,1432.1,405,35.65,35.65,0,0,0,1458.82,393.48Z"/><path class="cls-1" d="M1707.88,289.64q18.72,20.33,18.72,55.84V449.8h-54.4v-97q0-17.93-9.28-27.84t-25-9.92q-15.69,0-25,9.92t-9.28,27.84v97H1549V271.24h54.72v23.68a57.71,57.71,0,0,1,22.4-18.72q14.07-6.88,31.68-6.88Q1689.15,269.32,1707.88,289.64Z"/><path class="cls-1" d="M1855.52,403.4v46.4h-27.84q-29.76,0-46.4-14.56t-16.64-47.52v-71h-21.76V271.24h21.76V227.72h54.72v43.52h35.84v45.44h-35.84v71.68q0,8,3.84,11.52t12.8,3.52Z"/><path class="cls-1" d="M2046.66,373.64H1922.82q1.28,16.64,10.72,25.44t23.2,8.8q20.48,0,28.48-17.28h58.24A80.42,80.42,0,0,1,1998,444.36q-17.61,8-39.36,8-26.25,0-46.72-11.2a79.62,79.62,0,0,1-32-32q-11.52-20.81-11.52-48.64t11.36-48.64a78.57,78.57,0,0,1,31.84-32q20.48-11.2,47-11.2,25.92,0,46.08,10.88a78.14,78.14,0,0,1,31.52,31q11.35,20.16,11.36,47A139.73,139.73,0,0,1,2046.66,373.64Zm-55-30.4q0-14.08-9.6-22.4t-24-8.32q-13.77,0-23.2,8t-11.68,22.72Z"/><path class="cls-1" d="M2247.3,271.24V449.8h-54.72V425.48a60.13,60.13,0,0,1-22.56,19,68.87,68.87,0,0,1-31.52,7.2q-20.49,0-36.16-9.12A61.45,61.45,0,0,1,2078,416.2q-8.64-17.28-8.64-40.64V271.24h54.4v97q0,17.93,9.28,27.84t25,9.92q16,0,25.28-9.92t9.28-27.84v-97Z"/><path class="cls-1" d="M2359.77,277.8a62,62,0,0,1,32-8.48v57.92h-15q-20.47,0-30.72,8.8t-10.24,30.88V449.8h-54.72V271.24h54.72V301A72.18,72.18,0,0,1,2359.77,277.8Z"/><path class="cls-1" d="M755,537.8a102.94,102.94,0,0,1,40.16-40.64q25.75-14.57,58.4-14.56,40,0,68.48,21.12t38.08,57.6H899.92a48.61,48.61,0,0,0-19-21.44,53.5,53.5,0,0,0-28-7.36q-25.27,0-41,17.6t-15.68,47q0,29.45,15.68,47t41,17.6a53.5,53.5,0,0,0,28-7.36,48.61,48.61,0,0,0,19-21.44h60.16q-9.6,36.48-38.08,57.44t-68.48,21q-32.64,0-58.4-14.56A103.25,103.25,0,0,1,755,656.36q-14.4-25.92-14.4-59.2T755,537.8Z"/><path class="cls-1" d="M1065.52,537.8a61.9,61.9,0,0,1,32-8.48v57.92h-15q-20.49,0-30.72,8.8t-10.24,30.88V709.8H986.8V531.24h54.72V561A72.18,72.18,0,0,1,1065.52,537.8Z"/><path class="cls-1" d="M1285.8,633.64H1162q1.27,16.64,10.72,25.44t23.2,8.8q20.47,0,28.48-17.28h58.24a80,80,0,0,1-16.16,31.68,80.89,80.89,0,0,1-29.28,22.08q-17.6,8-39.36,8-26.23,0-46.72-11.2a79.68,79.68,0,0,1-32-32q-11.52-20.8-11.52-48.64t11.36-48.64a78.63,78.63,0,0,1,31.84-32q20.48-11.21,47-11.2,25.92,0,46.08,10.88a78.08,78.08,0,0,1,31.52,31q11.36,20.16,11.36,47A139.73,139.73,0,0,1,1285.8,633.64Zm-55-30.4q0-14.09-9.6-22.4t-24-8.32q-13.76,0-23.2,8t-11.68,22.72Z"/><path class="cls-1" d="M1311,571.88q10.38-20.8,28.31-32a73.91,73.91,0,0,1,40-11.2q18.88,0,33.12,7.68a56.6,56.6,0,0,1,21.92,20.16V531.24H1489V709.8h-54.73V684.52a59.13,59.13,0,0,1-22.23,20.16q-14.25,7.68-33.12,7.68A72.64,72.64,0,0,1,1339.27,701q-17.91-11.36-28.31-32.32t-10.41-48.48Q1300.55,592.67,1311,571.88Zm112,16.32a38.47,38.47,0,0,0-55.37-.16q-11.35,11.69-11.36,32.16t11.36,32.48a38.11,38.11,0,0,0,55.37.16q11.34-11.83,11.35-32.32T1423,588.2Z"/><path class="cls-1" d="M1623.3,663.4v46.4h-27.84q-29.76,0-46.4-14.56t-16.64-47.52v-71h-21.76V531.24h21.76V487.72h54.72v43.52H1623v45.44h-35.84v71.68q0,8,3.84,11.52t12.8,3.52Z"/><path class="cls-1" d="M1704.2,531.24V709.8h-54.72V531.24Z"/><path class="cls-1" d="M1816.74,658.6l38.72-127.36h58.24L1850.34,709.8h-67.52l-63.36-178.56H1778Z"/><path class="cls-1" d="M2090.62,633.64H1966.78q1.28,16.64,10.72,25.44t23.2,8.8q20.47,0,28.48-17.28h58.24a80,80,0,0,1-16.16,31.68A80.89,80.89,0,0,1,2042,704.36q-17.6,8-39.36,8-26.23,0-46.72-11.2a79.68,79.68,0,0,1-32-32q-11.52-20.8-11.52-48.64t11.36-48.64a78.63,78.63,0,0,1,31.84-32q20.48-11.21,47-11.2,25.92,0,46.08,10.88a78.08,78.08,0,0,1,31.52,31q11.36,20.16,11.36,47A139.73,139.73,0,0,1,2090.62,633.64Zm-55-30.4q0-14.09-9.6-22.4t-24-8.32q-13.76,0-23.2,8t-11.68,22.72Z"/><path class="cls-2" d="M600,450h0V225C600,100.74,499.26,0,375,0S150,100.74,150,225,250.74,450,375,450h81.41a112.56,112.56,0,0,0,161.26,60.56A112.08,112.08,0,0,1,600,450Z"/><path class="cls-1" d="M150,712.5V600h70.48l63.75,112.5H456.64L365.15,551a230.56,230.56,0,0,0,19-16.94A225,225,0,0,0,65.9,215.9,223.52,223.52,0,0,0,0,375V712.5ZM150,450V375a75,75,0,1,1,75,75H197.86a37.49,37.49,0,0,1-53.76,20.17A37.26,37.26,0,0,0,150,450Z"/><path class="cls-3" d="M278,428.07A224.16,224.16,0,0,0,375,450h62.25A225.32,225.32,0,0,0,159.67,159.58,225.74,225.74,0,0,0,171.93,322,75,75,0,1,1,278,428.07Z"/></svg>