<?xml version="1.0" encoding="UTF-8"?>
<svg id="Layer_1" xmlns="http://www.w3.org/2000/svg" version="1.1" viewBox="0 0 1024 512">
  <!-- Generator: Adobe Illustrator 30.0.0, SVG Export Plug-In . SVG Version: 2.1.1 Build 123)  -->
  <defs>
    <style>
      .st0 {
        fill: #662d91;
      }

      .st1, .st2 {
        fill: #fff;
      }

      .st2 {
        font-family: MyriadPro-Regular, 'Myriad Pro';
        font-size: 42px;
        letter-spacing: 0em;
      }
    </style>
  </defs>
  <text class="st2" transform="translate(296.7 413.2)"><tspan x="0" y="0">POLICY FOR ALL PEOPLE</tspan></text>
  <g>
    <g>
      <path class="st1" d="M518.3,166.9v-71.3h23.5c5.8,0,10.5.8,14,2.5,3.5,1.7,6.2,4.1,7.8,7.2,1.7,3.1,2.5,6.8,2.5,11,0,6.6-1.9,11.6-5.6,15.2-3.7,3.6-9,5.6-15.9,6-1.6,0-3.2.1-4.8.1h-8.4v29.4h-13.2ZM531.5,125.6h9c2.3,0,4.3-.3,6.2-.8,1.9-.5,3.4-1.4,4.6-2.8,1.2-1.3,1.7-3.2,1.7-5.7s-.6-4.4-1.7-5.7c-1.2-1.3-2.7-2.2-4.6-2.6-1.9-.4-3.9-.7-6.2-.7h-9v18.2ZM557.1,166.9l-17.9-30.9,13.5-1.6,19.7,32.5h-15.3Z"/>
      <path class="st1" d="M598.1,167.9c-3.7,0-7-.7-9.9-2-2.9-1.4-5.2-3.3-6.9-5.8-1.7-2.5-2.5-5.4-2.5-8.7s.6-5.4,1.8-7.5c1.2-2.1,2.8-3.7,4.8-4.8,1.7-1,3.6-1.7,5.7-2.1,2.1-.4,4.3-.6,6.7-.6h15.7v9.4h-13.8c-1.1,0-2.2,0-3.2.3-1.1.2-2,.6-2.7,1.2-.7.5-1.2,1.1-1.5,1.8-.3.7-.5,1.5-.5,2.4,0,1.9.8,3.4,2.3,4.6,1.5,1.2,3.5,1.7,6,1.7s4.3-.5,6.2-1.5c1.9-1,3.4-2.4,4.5-4.1,1.1-1.7,1.7-3.7,1.7-6l3.4,6.8c-.9,3.5-2.2,6.4-4,8.6-1.8,2.2-3.9,3.8-6.2,4.9-2.3,1-4.8,1.5-7.4,1.5ZM613.4,166.9l-1-7.6v-24.3c0-3-.9-5.2-2.8-6.7-1.9-1.5-4.4-2.2-7.6-2.2s-5.4.5-8.1,1.6c-2.8,1.1-5.2,2.5-7.3,4.5l-6.4-8.7c3.5-2.9,7.2-4.9,10.9-6.2,3.7-1.3,7.7-1.9,12-1.9,7,0,12.4,1.7,16.3,5.2,3.9,3.5,5.8,8.3,5.8,14.4v31.8h-11.7Z"/>
      <path class="st1" d="M637.4,108.6v-13.1h13.6v13.1h-13.6ZM637.9,166.9v-50.5h12.7v50.5h-12.7Z"/>
      <path class="st1" d="M664.1,166.9v-50.5h12.8v11.5l-2,.2c.9-3.1,2.2-5.5,3.9-7.4,1.7-1.8,3.7-3.2,5.9-4,2.3-.9,4.6-1.3,7-1.3,5.7,0,10.2,1.6,13.5,4.9,3.2,3.2,4.9,7.8,4.9,13.7v33h-12.8v-28.3c0-4.2-.8-7.3-2.3-9.3-1.5-1.9-3.9-2.9-7.1-2.9s-4.5.6-6.1,1.7c-1.6,1.1-2.8,2.9-3.6,5.3-.8,2.4-1.2,5.5-1.2,9.3v24.2h-12.8Z"/>
      <path class="st1" d="M745.3,167.9c-4.4,0-8.1-.7-11.3-2.1-3.1-1.4-5.7-3.4-7.7-5.8-2-2.4-3.5-5.2-4.5-8.3-1-3.1-1.4-6.4-1.4-9.8s.5-6.5,1.4-9.6c1-3.1,2.4-6,4.3-8.5,1.9-2.5,4.4-4.6,7.4-6.1,3-1.5,6.7-2.3,10.9-2.3s7.4.7,10.3,2,5.4,3.2,7.3,5.5,3.4,5.1,4.4,8.2c1,3.1,1.5,6.5,1.5,10s0,1.1,0,2c0,.9-.1,1.8-.3,2.7h-34.5c.3,3.6,1.7,6.3,4,8.2,2.4,1.8,5.3,2.8,8.9,2.8s5.1-.5,7.6-1.4,4.6-2.2,6.6-3.9l6.3,8.6c-2.4,1.8-4.6,3.3-6.8,4.5-2.1,1.2-4.3,2-6.6,2.5s-4.9.8-7.8.8ZM755.4,139.5c.1-.5.3-1.1.4-1.6.1-.5.2-1.1.2-1.5,0-1.4-.3-2.8-.8-4-.5-1.3-1.3-2.4-2.3-3.3-1-1-2.1-1.7-3.4-2.2s-2.9-.8-4.6-.8c-2.5,0-4.6.5-6.3,1.5-1.7,1-3,2.3-3.8,3.9-.9,1.6-1.4,3.3-1.6,5h26.6l-4.3,3.1Z"/>
      <path class="st1" d="M781.8,187.7l10.2-24.8-19-46.6h13.9l11.9,33.9,12.1-33.9h13.7l-29,71.3h-13.8Z"/>
      <path class="st1" d="M549.6,270.9c-6.8,0-12.7-1.6-17.9-4.7s-9.2-7.5-12-13.1c-2.9-5.6-4.3-12.1-4.3-19.6s1.4-13.9,4.3-19.5c2.9-5.6,6.9-9.9,12-13.1,5.2-3.1,11.1-4.7,17.9-4.7s14.1,1.9,19.6,5.7c5.5,3.8,9.4,9,11.8,15.6l-12.5,4.6c-1.5-4.2-3.9-7.4-7.1-9.7-3.2-2.3-7.2-3.5-11.8-3.5s-7.9,1-11.1,3c-3.2,2-5.6,4.8-7.3,8.4-1.7,3.7-2.5,8-2.5,13.2s.8,9.5,2.5,13.2,4.1,6.5,7.3,8.5c3.2,2,6.9,3,11.1,3s8.6-1.2,11.8-3.5c3.2-2.3,5.6-5.6,7.1-9.7l12.5,4.5c-2.4,6.6-6.3,11.8-11.8,15.7-5.5,3.8-12,5.7-19.6,5.7Z"/>
      <path class="st1" d="M617.9,270.2c-4.4,0-8.1-.7-11.3-2.1-3.1-1.4-5.7-3.4-7.7-5.8-2-2.4-3.5-5.2-4.5-8.3-1-3.1-1.4-6.4-1.4-9.8s.5-6.5,1.4-9.6c1-3.1,2.4-6,4.3-8.5,1.9-2.5,4.4-4.6,7.4-6.1,3-1.5,6.7-2.3,10.9-2.3s7.4.7,10.3,2c2.9,1.3,5.4,3.2,7.3,5.5,1.9,2.4,3.4,5.1,4.3,8.2,1,3.1,1.5,6.5,1.5,10s0,1.1,0,2c0,.9-.1,1.8-.3,2.7h-34.5c.3,3.6,1.7,6.3,4,8.2,2.4,1.8,5.3,2.8,8.9,2.8s5.1-.5,7.6-1.4c2.5-.9,4.6-2.2,6.6-3.9l6.3,8.6c-2.4,1.8-4.6,3.3-6.8,4.5-2.1,1.2-4.3,2-6.6,2.5-2.3.5-4.9.8-7.8.8ZM627.9,241.9c.1-.5.3-1.1.4-1.6.1-.5.2-1.1.2-1.5,0-1.4-.3-2.8-.8-4-.5-1.3-1.3-2.4-2.3-3.3-1-1-2.1-1.7-3.4-2.2s-2.8-.8-4.6-.8c-2.5,0-4.6.5-6.3,1.5-1.7,1-3,2.3-3.8,3.9-.9,1.6-1.4,3.3-1.6,5h26.6l-4.3,3.1Z"/>
      <path class="st1" d="M655.9,269.2v-50.5h12.8v11.5l-2,.2c.9-3.1,2.2-5.5,3.9-7.4,1.7-1.8,3.7-3.2,5.9-4,2.3-.9,4.6-1.3,7-1.3,5.7,0,10.2,1.6,13.5,4.9,3.2,3.2,4.9,7.8,4.9,13.7v33h-12.8v-28.3c0-4.2-.8-7.3-2.3-9.3-1.5-1.9-3.9-2.9-7.1-2.9s-4.5.6-6.1,1.7c-1.6,1.1-2.8,2.9-3.6,5.3-.8,2.4-1.2,5.5-1.2,9.3v24.2h-12.8Z"/>
      <path class="st1" d="M709.4,228.7v-9.9h33.1v9.9h-33.1ZM733.9,270.2c-2.7,0-5.3-.5-7.6-1.5s-4.2-2.7-5.6-5c-1.4-2.3-2.1-5.4-2.1-9.3v-47.4l12.9-6.9v50.8c0,2.9.4,5.2,1.2,6.7.8,1.5,2.3,2.3,4.7,2.3s1.4,0,2.3-.2c.9-.1,1.8-.3,2.8-.6v9.7c-1.4.5-2.9.9-4.3,1.2-1.4.2-2.9.4-4.3.4Z"/>
      <path class="st1" d="M774.7,270.2c-4.4,0-8.1-.7-11.3-2.1-3.1-1.4-5.7-3.4-7.7-5.8-2-2.4-3.5-5.2-4.5-8.3-1-3.1-1.4-6.4-1.4-9.8s.5-6.5,1.4-9.6c1-3.1,2.4-6,4.3-8.5,1.9-2.5,4.4-4.6,7.4-6.1,3-1.5,6.7-2.3,10.9-2.3s7.4.7,10.3,2c2.9,1.3,5.4,3.2,7.3,5.5,1.9,2.4,3.4,5.1,4.4,8.2,1,3.1,1.5,6.5,1.5,10s0,1.1,0,2c0,.9-.1,1.8-.3,2.7h-34.5c.3,3.6,1.7,6.3,4,8.2,2.4,1.8,5.3,2.8,8.9,2.8s5.1-.5,7.6-1.4c2.5-.9,4.6-2.2,6.6-3.9l6.3,8.6c-2.4,1.8-4.6,3.3-6.8,4.5-2.1,1.2-4.3,2-6.6,2.5-2.3.5-4.9.8-7.8.8ZM784.7,241.9c.1-.5.3-1.1.4-1.6.1-.5.2-1.1.2-1.5,0-1.4-.3-2.8-.8-4-.5-1.3-1.3-2.4-2.3-3.3-1-1-2.1-1.7-3.4-2.2-1.3-.5-2.9-.8-4.6-.8-2.5,0-4.6.5-6.3,1.5-1.7,1-3,2.3-3.8,3.9-.9,1.6-1.4,3.3-1.6,5h26.6l-4.3,3.1Z"/>
      <path class="st1" d="M808.6,269.2v-50.5h12.8v13.7l-1.9.2c.2-2.9,1.1-5.5,2.7-7.8,1.6-2.3,3.5-4,5.8-5.3s4.6-1.9,7-1.9,3.3.2,4.9.7c1.5.4,3.1,1.2,4.8,2.2l-6.1,11.5c-.8-.4-1.7-.8-2.9-1.1-1.2-.3-2.3-.5-3.5-.5s-2.7.2-3.9.7c-1.3.5-2.4,1.2-3.4,2.3-1,1-1.8,2.4-2.4,4.1-.3,1-.5,2.2-.7,3.6-.2,1.5-.3,3.6-.3,6.4v21.7h-12.8Z"/>
    </g>
    <g>
      <path class="st1" d="M359.9,66.3c-67.9,0-122.9,54.4-122.9,121.6s55,121.6,122.9,121.6,122.9-54.4,122.9-121.6-55-121.6-122.9-121.6ZM356,99.5c1.5-1.1,3.4-2,5.2-2.2,4.8-.5,9.8-1.2,14.5-.7,7.6.8,14.6,3.7,20.6,8.4,5.1,3.9,10.1,7.9,14,13.1,4.7,6.2,8,12.9,9.8,20.4,1,4.3.9,8.8-1.9,12.4-2.8,3.6-7.6,4.6-10.4,8.1-4.8,6.1-1.9,15.7,1.6,21.5,3.7,6.2,6.7,12.9,9.8,19.5,2.1,4.5.8,7.1-2.8,10.2-2.8,2.4-6.1,4.3-9.1,6.2-3.8,2.5-8.2,2.6-12.6,2.6-3.2,0-6-.9-8.7-2.5-2.2-1.3-4.6-.7-6.9-.4-2.2.3-4.4.2-6.5-.5-3.4-1.3-5.1-8.2-3.3-11,2.7-4.3,6-3.2,10.3-3.3,2.6,0,5.1-1.2,7.4-2.4,1.4-.7,1.9-2.1,2.1-3.5,0-.3-.2-.7-.4-.8-.2-.1-.7,0-.9.1-1.9,2.2-4.5,1.9-7,2.2-1.3.1-2.6.4-3.8-.7-.3-.3-1.1,0-1.7,0-3.8.5-7.3-.2-10.6-2.2-1.1-.6-1.9-1.7-2.7-2.7-.3-.3,0-1.1,0-1.7.4.2.9.3,1.3.7,2.1,2,4.7,2.6,7.4,3,2.3.3,4.6.7,6.9.8,1.4,0,2.8-.3,4.2-.6.3,0,.9-.7.8-1-.1-.4-.6-.8-1-.9-2.5-.7-5.1-1.4-7.6-2.1-.4-.1-.7-.4-1-.6,0-.2.1-.3.2-.5,1.1.2,2.3.5,3.4.7.9.1,1.9.1,2.8,0,1.3,0,2.7-.2,4-.4.7,0,1.4,0,1.9-.4.6-.4,1.4-1.2,1.3-1.8,0-1.2-1.2-2-2.4-1.8-2.8.4-5.5.3-8.3-.4-1.4-.3-2.9.1-4.3.3-.7,0-1.5.3-2.6.5,1.8-.8,3.2-1.4,4.7-2.1,2.5-1.1,5-1.2,7.4,0,1.6.8,2.7-.6,4-1,.3,0,.3-1.4.3-2.2-.2-1.9-1.3-3.3-3-4.3-.5,1.1-1,2-1.4,3-.1,0-.3,0-.4-.1.4-1.5.8-3.1,1.2-4.8-.6-.2-1.2-.4-1.8-.5-.8-.2-1.7-.3-2.5-.7-.5-.3-1.2-1.1-1.1-1.5,0-.5.9-1.2,1.5-1.3,1.1-.2,2.2,0,3.3,0,1.6,0,3.3.4,4.8,0,1.2-.2,2.4-1.1,3.4-1.9.4-.3.3-1.3.1-1.9-.9-2.5-2.1-5-2.9-7.5-1-3-2.2-6.1-2.4-9.3-.4-5.2.4-8.4,6.5-10.8,1.3-.5,2.6-1.3,3.6-2.2,1.7-1.6,1.6-3.4,0-6-.9-1.4-2.2-1.7-4.4-1-.2,0-.4.2-.8.3,0-1.3.5-2.1,1.5-2.8,1.2-.9,2.3-1.8,3.4-2.8,1-.9.8-2.4-.3-2.9-1.2-.5-2.5-1-3.8,0-.3.2-.6.4-.9.4-.3,0-.8,0-1-.2-.1-.1,0-.7.1-1,.4-.5,1-1,1.5-1.5,1-.8,1.6-1.7,1.3-2.9-.3-1.2-.8-2.2-2.4-2.5-2.8-.5-5.5-1.6-8.4-1.9-4.1-.4-8.3-.3-12.4-.4-2.5,0-5,0-7.4-.2-1.5-.2-3-.8-4.2-1.6-4.3-2.7-3.2-7.2,0-9.4ZM362.6,138.9c1.6-1.3,3.1-1.7,4.6-1.4,3,.5,6.1,1,9,2,3.1,1.1,3.9,4.3,2.1,7.1-.5.7-1,1.4-1.6,2-1.4,1.3-2.4,2.8-3,4.7-.9,2.8-4.4,5.4-7.3,5.2,2.5-1.2,4.4-2.7,5.5-5.4-2.4,1.2-4.6,1.7-7.2,1.1,1.5-.5,2.8-1,4.1-1.5,0-.1,0-.3,0-.4-2.5-1.2-5-2.5-7.5-3.6-1.6-.7-3.4-1-5.1,0,.1-1,1.2-2.2,2.6-2.6,2.2-.7,4.5-1.3,6.8-1.8,1.8-.4,3.6-.5,5.5-.8-1.5-3.6-4.9-3.9-8.3-4.5ZM371.8,166.7c.2.2.4.4.6.6-3.2,3.7-7.1,6.8-10.8,10.1,3.3-3.6,6.4-7.4,10.2-10.6ZM306.9,140.7c1.1-6.5,3.2-13.2,7.7-18.2,3.4-3.8,8.6-2.3,12.3-5.2,1.7-1.3,3.1-3.1,4.7-4.6,3.1-2.9,6.3-5.6,10.3-7.2,2.1-.8,9.8-3.8,10.2.5.2,2.2-.8,4.1-2.3,5.6-3,2.9-4.8,6.5-7,10-1.7,2.6-2,5.7-2.2,8.7-.4,5.8.3,11.5,1,17.2.6,4.6,1,9.3.6,14-.2,2,0,4,.3,5.9.5,3.7,3.1,5.8,5.8,7.9,1,.8,2.1,1.5,3.1,2.3,2.3,1.9,3.6,4.4,3.8,7.4.3,2.9,1.4,5.1,3.8,7.1,2.9,2.5,5,5.6,5.5,9.5.1.9-.1,1.9-.2,2.8-2.1-2.3-4.6-3.3-7.4-3.6-6.3-.7-11.9-3.1-16.9-6.7-2.3-1.6-3.5-3.9-4.7-6.4-.8-1.8-1.8-3.9-4.3-4.3-.6,0-1.1-.4-1.6-.5-1.8-.5-2.8-1.7-3-3.5,0-.9-.4-1.3-1.3-1.2-3.5.2-5.4-1.6-6.6-4.7-1.7-4.5-4.5-8.4-7.3-12.3-4.7-6.5-5.4-12.7-4.1-20.5ZM359.3,267.2c-16.3-16.7-41.8-26-64.2-25.3-4.9.2-9.8.8-14.6,0-5.7-.9-14.3-5.2-10.4-11.9,2.8-4.8,8.1-8.1,12.5-11.4,4-3,8.5-5.3,13.1-7.3,2.6-1.1,5.4-2.1,8-3.1,2.4-1,5-2.3,7.5-2.9,1.2-.5,2.4-.9,3.6-1.1,4-.4,4.7,2.8,6.2,5.6.9,1.7,1.9,3.2,3.5,4.3,2.8,2.1,6.1,3.5,9.4,4.9,4.9,2,10,3.8,15.2,5.1,3.1.7,6.2,1.2,8.9,2.8,7.9,4.6,12.3,14.9,13,23.6,0,.7.1,1.5.2,2.2.5,5.9.8,11.8,2.6,17.5-5.3.7-10-.6-14.4-3.1ZM376.9,263.4c-.1.8-.7,1.8-1.4,1.4-.2-.1-.3-.4-.4-.6-.8-2.2-.7-4.5-.6-6.8,0-6.1-.8-12.1-2.6-18-.8-2.7-1.7-5.4-3.1-7.8-1.5-2.4-3.5-4.4-5.2-6.7-.9-1.1-1.8-2.1-2.9-2.9-2.9-1.4-6.1-2.4-9.4-2.9-8.9-1.5-18.8-4.7-25.6-10.8-6.7-6-9.8-18.4.5-22.7,2-.8,4-.7,5.3,1.1,2.9,4,4.1,8.6,7.8,12.1,3.3,3.1,7.5,5.2,12,5.8,2.8.4,5.7.2,8.2,1.5,5,2.4,6.6,8.8,8.7,13.4,1.3,2.9,2.5,5.9,3.6,8.9.8,2.1,1.5,4.2,2.1,6.3,2.9,9.3,4.3,19.2,2.9,28.8ZM429.5,243.2c-.6,3.2-1.8,6.6-2.8,9.7-3.1,9.2-10.2,18-18.9,22.6-6.9,3.8-17.9,6.3-23.7-.8-3.8-4.6-2-11.9-2.1-17.2,0-3.3-.1-6.3-1.1-9.5-.8-2.9-1.9-5.9-1.3-9,.3-1.8.8-2.4,2.2-3.5,2.9-2.3,7.6-2.4,11-2.7,3.1-.2,6-.2,9.1.5,3,.6,5.9,1.6,8.9,2.3,3.7.9,7.5,1.6,11.3,2.1,2.2.3,5.2.6,6.7,2.2.7.7,1,1.8.7,3.2ZM429,235.8c-2.3.8-4.8.2-7.1-.6-2.8-1-5.4-1.9-8.3-2.4-3.1-.5-6.2-.8-9.3-1.2-4.6-.5-9.2-1.2-13.8-1.3-3.1,0-6.3.3-9.3,1.3-2,.6-5.4,3.5-6.3-.1-.2-.7-.1-1.4,0-2.1.3-3.5.3-11.8,6-10,1.1.3,2.1.7,3.2,1,2.4.6,4.9.9,7.3,1.3,3.9.6,7.9,1.5,11.8,1,1.7-.2,3.4-.6,4.9-1.6,1.5-1,2.2-2.3,3.4-3.6,1.4-1.6,3.5-1.7,5.6-2.3,2.1-.5,4.6-1.9,6.7-.8,2.3,1.2,4,3.3,5.8,5.1,1.8,1.8,3.3,4,4,6.4,0,.1,0,.3.1.5.8,3.7-.7,8-4.5,9.3Z"/>
      <g>
        <path class="st1" d="M403.4,140.3c.2,1.2-.2,2.5-.5,3.7-1,3.2-2,6.4-3.1,9.6-.1.4-.7.8-1,1.1-.2-.4-.7-.8-.7-1.2-.2-1.3-.4-3.8-.5-3.9.7-3.2,1.2-6.5,2-9.7.7-2.6.2-4.8-.9-7.1-.8-1.6-1.3-3.3-1.7-5.1-.1-.4.5-1,.7-1.4.3.4.7.8.9,1.2,1.1,2.3,2.2,4.6,3.1,6.9.7,1.8,1.4,3.7,1.8,5.6Z"/>
        <path class="st1" d="M399.5,166.4c0,3.4-1,6.5-2.4,9.5-.9,2-1.7,4-2.5,6-.9,2.5-1.7,5-2.5,7.5,0,.2,0,.4-.2.5-.3.2-.7.4-1,.6-.2-.4-.6-.8-.5-1.1.9-3.1,1.9-6.1,3-9.1,1.2-3.2,2.5-6.4,3.7-9.7.4-1,.5-2.1.6-3.2.1-1,.5-1.5,1.7-1.2Z"/>
        <path class="st0" d="M360.8,210c0,0,0,.1.1.2,0,0-.2,0-.2-.1,0,0,0,0,.1,0Z"/>
        <path class="st1" d="M331.1,152.6c3.1,2.5,4.7,5.6,4.2,9.7-.4,3.3-.2,6.8-.3,10.1,0,.7-.2,1.4-.3,2.2-2.8-1.9-4.6-4.2-5.3-7.3-.5-2.2-1.4-4.3-2.2-6.4-.8-2.2-1.4-4.3-.9-6.6.5-2.6,2.7-3.4,4.8-1.6Z"/>
      </g>
    </g>
  </g>
</svg>